
<global>
ampeg_release=0.25
</global>

<group>
group_label=RR1
seq_length=8
seq_position=1

<region>
hivel=127
key=A#4
lovel=85
offset=952
sample=Tenor_staccatissimo_FF_A#4_RR1.opus
</region>

<region>
hivel=127
key=A4
lovel=85
offset=2353
sample=Tenor_staccatissimo_FF_A4_RR1.opus
</region>

<region>
hivel=127
key=B4
lovel=85
offset=471
sample=Tenor_staccatissimo_FF_B4_RR1.opus
</region>

<region>
hivel=127
key=C#5
lovel=85
offset=1112
sample=Tenor_staccatissimo_FF_C#5_RR1.opus
</region>

<region>
hivel=127
key=C5
lovel=85
offset=248
sample=Tenor_staccatissimo_FF_C5_RR1.opus
</region>

<region>
hikey=F5
hivel=127
lokey=D#5
lovel=85
offset=8171
pitch_keycenter=D#5
sample=Tenor_staccatissimo_FF_D#5_RR1.opus
</region>

<region>
hivel=127
key=D5
lovel=85
offset=976
sample=Tenor_staccatissimo_FF_D5_RR1.opus
</region>

<region>
hivel=127
key=E4
lovel=85
offset=7363
sample=Tenor_staccatissimo_FF_E4_RR1.opus
</region>

<region>
hivel=127
key=F#4
lovel=85
offset=1406
sample=Tenor_staccatissimo_FF_F#4_RR1.opus
</region>

<region>
hivel=127
key=F4
lovel=85
offset=519
sample=Tenor_staccatissimo_FF_F4_RR1.opus
</region>

<region>
hivel=127
key=G#4
lovel=85
offset=475
sample=Tenor_staccatissimo_FF_G#4_RR1.opus
</region>

<region>
hivel=127
key=G4
lovel=85
offset=1422
sample=Tenor_staccatissimo_FF_G4_RR1.opus
</region>

<region>
hivel=127
key=C#4
lovel=85
offset=4549
sample=Tenor_staccatissimo_FF_C#4_RR1.opus
</region>

<region>
hivel=127
key=C4
lovel=85
offset=6532
sample=Tenor_staccatissimo_FF_C4_RR1.opus
</region>

<region>
hivel=127
key=D#4
lovel=85
offset=661
sample=Tenor_staccatissimo_FF_D#4_RR1.opus
</region>

<region>
hivel=127
key=D4
lovel=85
offset=814
sample=Tenor_staccatissimo_FF_D4_RR1.opus
</region>

<region>
hivel=127
key=A#3
lovel=85
offset=698
sample=Tenor_staccatissimo_FF_A#3_RR1.opus
</region>

<region>
hivel=127
key=A3
lovel=85
offset=971
sample=Tenor_staccatissimo_FF_A3_RR1.opus
</region>

<region>
hivel=127
key=B3
lovel=85
offset=204
sample=Tenor_staccatissimo_FF_B3_RR1.opus
</region>

<region>
hivel=127
key=G#3
lovel=85
offset=1145
sample=Tenor_staccatissimo_FF_G#3_RR1.opus
</region>

<region>
hivel=127
key=E3
lovel=85
offset=6172
sample=Tenor_staccatissimo_FF_E3_RR1.opus
</region>

<region>
hivel=127
key=F#3
lovel=85
offset=5147
sample=Tenor_staccatissimo_FF_F#3_RR1.opus
</region>

<region>
hivel=127
key=F3
lovel=85
offset=5223
sample=Tenor_staccatissimo_FF_F3_RR1.opus
</region>

<region>
hivel=127
key=G3
lovel=85
offset=862
sample=Tenor_staccatissimo_FF_G3_RR1.opus
</region>

<region>
hivel=127
key=A#2
lovel=85
offset=5002
sample=Tenor_staccatissimo_FF_A#2_RR1.opus
</region>

<region>
hivel=127
key=A2
lovel=85
offset=5078
sample=Tenor_staccatissimo_FF_A2_RR1.opus
</region>

<region>
hivel=127
key=B2
lovel=85
offset=8014
sample=Tenor_staccatissimo_FF_B2_RR1.opus
</region>

<region>
hivel=127
key=C#3
lovel=85
offset=5450
sample=Tenor_staccatissimo_FF_C#3_RR1.opus
</region>

<region>
hivel=127
key=C3
lovel=85
offset=8271
sample=Tenor_staccatissimo_FF_C3_RR1.opus
</region>

<region>
hivel=127
key=D#3
lovel=85
offset=7144
sample=Tenor_staccatissimo_FF_D#3_RR1.opus
</region>

<region>
hivel=127
key=D3
lovel=85
offset=6716
sample=Tenor_staccatissimo_FF_D3_RR1.opus
</region>

<region>
hivel=127
key=G#2
lovel=85
offset=6240
sample=Tenor_staccatissimo_FF_G#2_RR1.opus
</region>

<region>
hivel=84
key=A#4
lovel=43
offset=729
sample=Tenor_staccatissimo_MF_A#4_RR1.opus
</region>

<region>
hivel=84
key=A4
lovel=43
offset=1127
sample=Tenor_staccatissimo_MF_A4_RR1.opus
</region>

<region>
hivel=84
key=B4
lovel=43
offset=272
sample=Tenor_staccatissimo_MF_B4_RR1.opus
</region>

<region>
hivel=84
key=C#5
lovel=43
offset=231
sample=Tenor_staccatissimo_MF_C#5_RR1.opus
</region>

<region>
hivel=84
key=C5
lovel=43
offset=704
sample=Tenor_staccatissimo_MF_C5_RR1.opus
</region>

<region>
hikey=F5
hivel=84
lokey=D#5
lovel=43
offset=5584
pitch_keycenter=D#5
sample=Tenor_staccatissimo_MF_D#5_RR1.opus
</region>

<region>
hivel=84
key=D5
lovel=43
offset=760
sample=Tenor_staccatissimo_MF_D5_RR1.opus
</region>

<region>
hivel=84
key=G#4
lovel=43
offset=805
sample=Tenor_staccatissimo_MF_G#4_RR1.opus
</region>

<region>
hivel=84
key=A#3
lovel=43
offset=558
sample=Tenor_staccatissimo_MF_A#3_RR1.opus
</region>

<region>
hivel=84
key=A3
lovel=43
offset=859
sample=Tenor_staccatissimo_MF_A3_RR1.opus
</region>

<region>
hivel=84
key=B3
lovel=43
offset=1137
sample=Tenor_staccatissimo_MF_B3_RR1.opus
</region>

<region>
hivel=84
key=C#4
lovel=43
offset=4494
sample=Tenor_staccatissimo_MF_C#4_RR1.opus
</region>

<region>
hivel=84
key=C4
lovel=43
offset=7310
sample=Tenor_staccatissimo_MF_C4_RR1.opus
</region>

<region>
hivel=84
key=D#4
lovel=43
offset=1440
sample=Tenor_staccatissimo_MF_D#4_RR1.opus
</region>

<region>
hivel=84
key=D4
lovel=43
offset=4324
sample=Tenor_staccatissimo_MF_D4_RR1.opus
</region>

<region>
hivel=84
key=E3
lovel=43
offset=6757
sample=Tenor_staccatissimo_MF_E3_RR1.opus
</region>

<region>
hivel=84
key=E4
lovel=43
offset=6528
sample=Tenor_staccatissimo_MF_E4_RR1.opus
</region>

<region>
hivel=84
key=F#3
lovel=43
offset=624
sample=Tenor_staccatissimo_MF_F#3_RR1.opus
</region>

<region>
hivel=84
key=F#4
lovel=43
offset=1906
sample=Tenor_staccatissimo_MF_F#4_RR1.opus
</region>

<region>
hivel=84
key=F3
lovel=43
offset=1506
sample=Tenor_staccatissimo_MF_F3_RR1.opus
</region>

<region>
hivel=84
key=F4
lovel=43
offset=2650
sample=Tenor_staccatissimo_MF_F4_RR1.opus
</region>

<region>
hivel=84
key=G#3
lovel=43
offset=937
sample=Tenor_staccatissimo_MF_G#3_RR1.opus
</region>

<region>
hivel=84
key=G3
lovel=43
offset=3429
sample=Tenor_staccatissimo_MF_G3_RR1.opus
</region>

<region>
hivel=84
key=G4
lovel=43
offset=5257
sample=Tenor_staccatissimo_MF_G4_RR1.opus
</region>

<region>
hivel=84
key=A#2
lovel=43
offset=6472
sample=Tenor_staccatissimo_MF_A#2_RR1.opus
</region>

<region>
hivel=84
key=A2
lovel=43
offset=4444
sample=Tenor_staccatissimo_MF_A2_RR1.opus
</region>

<region>
hivel=84
key=B2
lovel=43
offset=6276
sample=Tenor_staccatissimo_MF_B2_RR1.opus
</region>

<region>
hivel=84
key=C#3
lovel=43
offset=5862
sample=Tenor_staccatissimo_MF_C#3_RR1.opus
</region>

<region>
hivel=84
key=C3
lovel=43
offset=5806
sample=Tenor_staccatissimo_MF_C3_RR1.opus
</region>

<region>
hivel=84
key=D#3
lovel=43
offset=5621
sample=Tenor_staccatissimo_MF_D#3_RR1.opus
</region>

<region>
hivel=84
key=D3
lovel=43
offset=6120
sample=Tenor_staccatissimo_MF_D3_RR1.opus
</region>

<region>
hivel=84
key=G#2
lovel=43
offset=5840
sample=Tenor_staccatissimo_MF_G#2_RR1.opus
</region>

<region>
hivel=42
key=C#5
lovel=0
offset=210
sample=Tenor_staccatissimo_PP_C#5_RR1.opus
</region>

<region>
hivel=42
key=C5
lovel=0
offset=338
sample=Tenor_staccatissimo_PP_C5_RR1.opus
</region>

<region>
hikey=F5
hivel=42
lokey=D#5
lovel=0
offset=5337
pitch_keycenter=D#5
sample=Tenor_staccatissimo_PP_D#5_RR1.opus
</region>

<region>
hivel=42
key=D5
lovel=0
offset=22
sample=Tenor_staccatissimo_PP_D5_RR1.opus
</region>

<region>
hivel=42
key=A#4
lovel=0
offset=788
sample=Tenor_staccatissimo_PP_A#4_RR1.opus
</region>

<region>
hivel=42
key=A4
lovel=0
offset=1593
sample=Tenor_staccatissimo_PP_A4_RR1.opus
</region>

<region>
hivel=42
key=B4
lovel=0
offset=306
sample=Tenor_staccatissimo_PP_B4_RR1.opus
</region>

<region>
hivel=42
key=F#4
lovel=0
offset=1730
sample=Tenor_staccatissimo_PP_F#4_RR1.opus
</region>

<region>
hivel=42
key=G#4
lovel=0
offset=434
sample=Tenor_staccatissimo_PP_G#4_RR1.opus
</region>

<region>
hivel=42
key=G4
lovel=0
offset=3848
sample=Tenor_staccatissimo_PP_G4_RR1.opus
</region>

<region>
hivel=42
key=C#4
lovel=0
offset=4387
sample=Tenor_staccatissimo_PP_C#4_RR1.opus
</region>

<region>
hivel=42
key=D#4
lovel=0
offset=951
sample=Tenor_staccatissimo_PP_D#4_RR1.opus
</region>

<region>
hivel=42
key=D4
lovel=0
offset=3169
sample=Tenor_staccatissimo_PP_D4_RR1.opus
</region>

<region>
hivel=42
key=E4
lovel=0
offset=4361
sample=Tenor_staccatissimo_PP_E4_RR1.opus
</region>

<region>
hivel=42
key=F4
lovel=0
offset=6154
sample=Tenor_staccatissimo_PP_F4_RR1.opus
</region>

<region>
hivel=42
key=A#3
lovel=0
offset=1002
sample=Tenor_staccatissimo_PP_A#3_RR1.opus
</region>

<region>
hivel=42
key=A3
lovel=0
offset=1073
sample=Tenor_staccatissimo_PP_A3_RR1.opus
</region>

<region>
hivel=42
key=B2
lovel=0
offset=4813
sample=Tenor_staccatissimo_PP_B2_RR1.opus
</region>

<region>
hivel=42
key=B3
lovel=0
offset=505
sample=Tenor_staccatissimo_PP_B3_RR1.opus
</region>

<region>
hivel=42
key=C#3
lovel=0
offset=4470
sample=Tenor_staccatissimo_PP_C#3_RR1.opus
</region>

<region>
hivel=42
key=C3
lovel=0
offset=3649
sample=Tenor_staccatissimo_PP_C3_RR1.opus
</region>

<region>
hivel=42
key=C4
lovel=0
offset=3749
sample=Tenor_staccatissimo_PP_C4_RR1.opus
</region>

<region>
hivel=42
key=D#3
lovel=0
offset=2060
sample=Tenor_staccatissimo_PP_D#3_RR1.opus
</region>

<region>
hivel=42
key=D3
lovel=0
offset=4146
sample=Tenor_staccatissimo_PP_D3_RR1.opus
</region>

<region>
hivel=42
key=E3
lovel=0
offset=6096
sample=Tenor_staccatissimo_PP_E3_RR1.opus
</region>

<region>
hivel=42
key=F#3
lovel=0
offset=4085
sample=Tenor_staccatissimo_PP_F#3_RR1.opus
</region>

<region>
hivel=42
key=F3
lovel=0
offset=1006
sample=Tenor_staccatissimo_PP_F3_RR1.opus
</region>

<region>
hivel=42
key=G#3
lovel=0
offset=243
sample=Tenor_staccatissimo_PP_G#3_RR1.opus
</region>

<region>
hivel=42
key=G3
lovel=0
offset=5120
sample=Tenor_staccatissimo_PP_G3_RR1.opus
</region>

<region>
hivel=42
key=A#2
lovel=0
sample=Tenor_staccatissimo_PP_A#2_RR1.opus
</region>

<region>
hivel=42
key=A2
lovel=0
sample=Tenor_staccatissimo_PP_A2_RR1.opus
</region>

<region>
hivel=42
key=G#2
lovel=0
sample=Tenor_staccatissimo_PP_G#2_RR1.opus
</region>
</group>

<group>
group_label=RR2
seq_length=8
seq_position=2

<region>
hivel=127
key=A#4
lovel=85
offset=1112
sample=Tenor_staccatissimo_FF_A#4_RR2.opus
</region>

<region>
hivel=127
key=A4
lovel=85
offset=846
sample=Tenor_staccatissimo_FF_A4_RR2.opus
</region>

<region>
hivel=127
key=B4
lovel=85
offset=232
sample=Tenor_staccatissimo_FF_B4_RR2.opus
</region>

<region>
hivel=127
key=C#5
lovel=85
offset=1023
sample=Tenor_staccatissimo_FF_C#5_RR2.opus
</region>

<region>
hivel=127
key=C5
lovel=85
offset=1081
sample=Tenor_staccatissimo_FF_C5_RR2.opus
</region>

<region>
hikey=F5
hivel=127
lokey=D#5
lovel=85
offset=6618
pitch_keycenter=D#5
sample=Tenor_staccatissimo_FF_D#5_RR2.opus
</region>

<region>
hivel=127
key=D5
lovel=85
offset=1599
sample=Tenor_staccatissimo_FF_D5_RR2.opus
</region>

<region>
hivel=127
key=E4
lovel=85
offset=1848
sample=Tenor_staccatissimo_FF_E4_RR2.opus
</region>

<region>
hivel=127
key=F#4
lovel=85
offset=1957
sample=Tenor_staccatissimo_FF_F#4_RR2.opus
</region>

<region>
hivel=127
key=F4
lovel=85
offset=6272
sample=Tenor_staccatissimo_FF_F4_RR2.opus
</region>

<region>
hivel=127
key=G#4
lovel=85
offset=982
sample=Tenor_staccatissimo_FF_G#4_RR2.opus
</region>

<region>
hivel=127
key=G4
lovel=85
offset=2905
sample=Tenor_staccatissimo_FF_G4_RR2.opus
</region>

<region>
hivel=127
key=C#4
lovel=85
offset=4565
sample=Tenor_staccatissimo_FF_C#4_RR2.opus
</region>

<region>
hivel=127
key=C4
lovel=85
offset=5690
sample=Tenor_staccatissimo_FF_C4_RR2.opus
</region>

<region>
hivel=127
key=D#4
lovel=85
offset=7573
sample=Tenor_staccatissimo_FF_D#4_RR2.opus
</region>

<region>
hivel=127
key=D4
lovel=85
offset=5166
sample=Tenor_staccatissimo_FF_D4_RR2.opus
</region>

<region>
hivel=127
key=A#3
lovel=85
offset=1115
sample=Tenor_staccatissimo_FF_A#3_RR2.opus
</region>

<region>
hivel=127
key=A3
lovel=85
offset=1174
sample=Tenor_staccatissimo_FF_A3_RR2.opus
</region>

<region>
hivel=127
key=B3
lovel=85
offset=715
sample=Tenor_staccatissimo_FF_B3_RR2.opus
</region>

<region>
hivel=127
key=G#3
lovel=85
offset=277
sample=Tenor_staccatissimo_FF_G#3_RR2.opus
</region>

<region>
hivel=127
key=E3
lovel=85
offset=6016
sample=Tenor_staccatissimo_FF_E3_RR2.opus
</region>

<region>
hivel=127
key=F#3
lovel=85
offset=600
sample=Tenor_staccatissimo_FF_F#3_RR2.opus
</region>

<region>
hivel=127
key=F3
lovel=85
offset=4576
sample=Tenor_staccatissimo_FF_F3_RR2.opus
</region>

<region>
hivel=127
key=G3
lovel=85
offset=4480
sample=Tenor_staccatissimo_FF_G3_RR2.opus
</region>

<region>
hivel=127
key=A#2
lovel=85
offset=6330
sample=Tenor_staccatissimo_FF_A#2_RR2.opus
</region>

<region>
hivel=127
key=A2
lovel=85
offset=6455
sample=Tenor_staccatissimo_FF_A2_RR2.opus
</region>

<region>
hivel=127
key=B2
lovel=85
offset=6998
sample=Tenor_staccatissimo_FF_B2_RR2.opus
</region>

<region>
hivel=127
key=C#3
lovel=85
offset=4952
sample=Tenor_staccatissimo_FF_C#3_RR2.opus
</region>

<region>
hivel=127
key=C3
lovel=85
offset=6821
sample=Tenor_staccatissimo_FF_C3_RR2.opus
</region>

<region>
hivel=127
key=D#3
lovel=85
offset=4136
sample=Tenor_staccatissimo_FF_D#3_RR2.opus
</region>

<region>
hivel=127
key=D3
lovel=85
offset=6113
sample=Tenor_staccatissimo_FF_D3_RR2.opus
</region>

<region>
hivel=127
key=G#2
lovel=85
offset=5841
sample=Tenor_staccatissimo_FF_G#2_RR2.opus
</region>

<region>
hivel=84
key=A#4
lovel=43
offset=867
sample=Tenor_staccatissimo_MF_A#4_RR2.opus
</region>

<region>
hivel=84
key=A4
lovel=43
offset=1383
sample=Tenor_staccatissimo_MF_A4_RR2.opus
</region>

<region>
hivel=84
key=B4
lovel=43
offset=489
sample=Tenor_staccatissimo_MF_B4_RR2.opus
</region>

<region>
hivel=84
key=C#5
lovel=43
offset=321
sample=Tenor_staccatissimo_MF_C#5_RR2.opus
</region>

<region>
hivel=84
key=C5
lovel=43
offset=711
sample=Tenor_staccatissimo_MF_C5_RR2.opus
</region>

<region>
hikey=F5
hivel=84
lokey=D#5
lovel=43
offset=4952
pitch_keycenter=D#5
sample=Tenor_staccatissimo_MF_D#5_RR2.opus
</region>

<region>
hivel=84
key=D5
lovel=43
offset=183
sample=Tenor_staccatissimo_MF_D5_RR2.opus
</region>

<region>
hivel=84
key=G#4
lovel=43
offset=5864
sample=Tenor_staccatissimo_MF_G#4_RR2.opus
</region>

<region>
hivel=84
key=A#3
lovel=43
offset=799
sample=Tenor_staccatissimo_MF_A#3_RR2.opus
</region>

<region>
hivel=84
key=A3
lovel=43
offset=1799
sample=Tenor_staccatissimo_MF_A3_RR2.opus
</region>

<region>
hivel=84
key=B3
lovel=43
offset=357
sample=Tenor_staccatissimo_MF_B3_RR2.opus
</region>

<region>
hivel=84
key=C#4
lovel=43
offset=2020
sample=Tenor_staccatissimo_MF_C#4_RR2.opus
</region>

<region>
hivel=84
key=C4
lovel=43
offset=5552
sample=Tenor_staccatissimo_MF_C4_RR2.opus
</region>

<region>
hivel=84
key=D#4
lovel=43
offset=2041
sample=Tenor_staccatissimo_MF_D#4_RR2.opus
</region>

<region>
hivel=84
key=D4
lovel=43
offset=5278
sample=Tenor_staccatissimo_MF_D4_RR2.opus
</region>

<region>
hivel=84
key=E3
lovel=43
offset=7195
sample=Tenor_staccatissimo_MF_E3_RR2.opus
</region>

<region>
hivel=84
key=E4
lovel=43
offset=5162
sample=Tenor_staccatissimo_MF_E4_RR2.opus
</region>

<region>
hivel=84
key=F#3
lovel=43
offset=7784
sample=Tenor_staccatissimo_MF_F#3_RR2.opus
</region>

<region>
hivel=84
key=F#4
lovel=43
offset=1494
sample=Tenor_staccatissimo_MF_F#4_RR2.opus
</region>

<region>
hivel=84
key=F3
lovel=43
offset=920
sample=Tenor_staccatissimo_MF_F3_RR2.opus
</region>

<region>
hivel=84
key=F4
lovel=43
offset=1920
sample=Tenor_staccatissimo_MF_F4_RR2.opus
</region>

<region>
hivel=84
key=G#3
lovel=43
offset=4234
sample=Tenor_staccatissimo_MF_G#3_RR2.opus
</region>

<region>
hivel=84
key=G3
lovel=43
offset=3446
sample=Tenor_staccatissimo_MF_G3_RR2.opus
</region>

<region>
hivel=84
key=G4
lovel=43
offset=5308
sample=Tenor_staccatissimo_MF_G4_RR2.opus
</region>

<region>
hivel=84
key=A#2
lovel=43
offset=4757
sample=Tenor_staccatissimo_MF_A#2_RR2.opus
</region>

<region>
hivel=84
key=A2
lovel=43
offset=6101
sample=Tenor_staccatissimo_MF_A2_RR2.opus
</region>

<region>
hivel=84
key=B2
lovel=43
offset=5188
sample=Tenor_staccatissimo_MF_B2_RR2.opus
</region>

<region>
hivel=84
key=C#3
lovel=43
offset=5136
sample=Tenor_staccatissimo_MF_C#3_RR2.opus
</region>

<region>
hivel=84
key=C3
lovel=43
offset=5788
sample=Tenor_staccatissimo_MF_C3_RR2.opus
</region>

<region>
hivel=84
key=D#3
lovel=43
offset=1406
sample=Tenor_staccatissimo_MF_D#3_RR2.opus
</region>

<region>
hivel=84
key=D3
lovel=43
offset=4179
sample=Tenor_staccatissimo_MF_D3_RR2.opus
</region>

<region>
hivel=84
key=G#2
lovel=43
offset=5719
sample=Tenor_staccatissimo_MF_G#2_RR2.opus
</region>

<region>
hivel=42
key=C#5
lovel=0
offset=50
sample=Tenor_staccatissimo_PP_C#5_RR2.opus
</region>

<region>
hivel=42
key=C5
lovel=0
offset=995
sample=Tenor_staccatissimo_PP_C5_RR2.opus
</region>

<region>
hikey=F5
hivel=42
lokey=D#5
lovel=0
offset=5101
pitch_keycenter=D#5
sample=Tenor_staccatissimo_PP_D#5_RR2.opus
</region>

<region>
hivel=42
key=D5
lovel=0
offset=257
sample=Tenor_staccatissimo_PP_D5_RR2.opus
</region>

<region>
hivel=42
key=A#4
lovel=0
offset=483
sample=Tenor_staccatissimo_PP_A#4_RR2.opus
</region>

<region>
hivel=42
key=A4
lovel=0
offset=1414
sample=Tenor_staccatissimo_PP_A4_RR2.opus
</region>

<region>
hivel=42
key=B4
lovel=0
offset=397
sample=Tenor_staccatissimo_PP_B4_RR2.opus
</region>

<region>
hivel=42
key=F#4
lovel=0
offset=702
sample=Tenor_staccatissimo_PP_F#4_RR2.opus
</region>

<region>
hivel=42
key=G#4
lovel=0
offset=708
sample=Tenor_staccatissimo_PP_G#4_RR2.opus
</region>

<region>
hivel=42
key=G4
lovel=0
sample=Tenor_staccatissimo_PP_G4_RR2.opus
</region>

<region>
hivel=42
key=C#4
lovel=0
offset=3746
sample=Tenor_staccatissimo_PP_C#4_RR2.opus
</region>

<region>
hivel=42
key=D#4
lovel=0
offset=1097
sample=Tenor_staccatissimo_PP_D#4_RR2.opus
</region>

<region>
hivel=42
key=D4
lovel=0
offset=1197
sample=Tenor_staccatissimo_PP_D4_RR2.opus
</region>

<region>
hivel=42
key=E4
lovel=0
offset=4897
sample=Tenor_staccatissimo_PP_E4_RR2.opus
</region>

<region>
hivel=42
key=F4
lovel=0
offset=1772
sample=Tenor_staccatissimo_PP_F4_RR2.opus
</region>

<region>
hivel=42
key=A#3
lovel=0
offset=760
sample=Tenor_staccatissimo_PP_A#3_RR2.opus
</region>

<region>
hivel=42
key=A3
lovel=0
offset=1059
sample=Tenor_staccatissimo_PP_A3_RR2.opus
</region>

<region>
hivel=42
key=B2
lovel=0
offset=5183
sample=Tenor_staccatissimo_PP_B2_RR2.opus
</region>

<region>
hivel=42
key=B3
lovel=0
offset=516
sample=Tenor_staccatissimo_PP_B3_RR2.opus
</region>

<region>
hivel=42
key=C#3
lovel=0
offset=3423
sample=Tenor_staccatissimo_PP_C#3_RR2.opus
</region>

<region>
hivel=42
key=C3
lovel=0
offset=4704
sample=Tenor_staccatissimo_PP_C3_RR2.opus
</region>

<region>
hivel=42
key=C4
lovel=0
offset=3267
sample=Tenor_staccatissimo_PP_C4_RR2.opus
</region>

<region>
hivel=42
key=D#3
lovel=0
offset=2320
sample=Tenor_staccatissimo_PP_D#3_RR2.opus
</region>

<region>
hivel=42
key=D3
lovel=0
offset=4110
sample=Tenor_staccatissimo_PP_D3_RR2.opus
</region>

<region>
hivel=42
key=E3
lovel=0
offset=3890
sample=Tenor_staccatissimo_PP_E3_RR2.opus
</region>

<region>
hivel=42
key=F#3
lovel=0
offset=2362
sample=Tenor_staccatissimo_PP_F#3_RR2.opus
</region>

<region>
hivel=42
key=F3
lovel=0
offset=1228
sample=Tenor_staccatissimo_PP_F3_RR2.opus
</region>

<region>
hivel=42
key=G#3
lovel=0
offset=708
sample=Tenor_staccatissimo_PP_G#3_RR2.opus
</region>

<region>
hivel=42
key=G3
lovel=0
offset=4388
sample=Tenor_staccatissimo_PP_G3_RR2.opus
</region>

<region>
hivel=42
key=A#2
lovel=0
sample=Tenor_staccatissimo_PP_A#2_RR2.opus
</region>

<region>
hivel=42
key=A2
lovel=0
offset=5317
sample=Tenor_staccatissimo_PP_A2_RR2.opus
</region>

<region>
hivel=42
key=G#2
lovel=0
offset=3493
sample=Tenor_staccatissimo_PP_G#2_RR2.opus
</region>
</group>

<group>
group_label=RR3
seq_length=8
seq_position=3

<region>
hivel=127
key=A#4
lovel=85
offset=724
sample=Tenor_staccatissimo_FF_A#4_RR3.opus
</region>

<region>
hivel=127
key=A4
lovel=85
offset=1253
sample=Tenor_staccatissimo_FF_A4_RR3.opus
</region>

<region>
hivel=127
key=B4
lovel=85
offset=443
sample=Tenor_staccatissimo_FF_B4_RR3.opus
</region>

<region>
hivel=127
key=C#5
lovel=85
offset=339
sample=Tenor_staccatissimo_FF_C#5_RR3.opus
</region>

<region>
hivel=127
key=C5
lovel=85
offset=364
sample=Tenor_staccatissimo_FF_C5_RR3.opus
</region>

<region>
hikey=F5
hivel=127
lokey=D#5
lovel=85
offset=5418
pitch_keycenter=D#5
sample=Tenor_staccatissimo_FF_D#5_RR3.opus
</region>

<region>
hivel=127
key=D5
lovel=85
offset=755
sample=Tenor_staccatissimo_FF_D5_RR3.opus
</region>

<region>
hivel=127
key=E4
lovel=85
offset=6235
sample=Tenor_staccatissimo_FF_E4_RR3.opus
</region>

<region>
hivel=127
key=F#4
lovel=85
offset=1088
sample=Tenor_staccatissimo_FF_F#4_RR3.opus
</region>

<region>
hivel=127
key=F4
lovel=85
offset=1653
sample=Tenor_staccatissimo_FF_F4_RR3.opus
</region>

<region>
hivel=127
key=G#4
lovel=85
offset=1015
sample=Tenor_staccatissimo_FF_G#4_RR3.opus
</region>

<region>
hivel=127
key=G4
lovel=85
offset=211
sample=Tenor_staccatissimo_FF_G4_RR3.opus
</region>

<region>
hivel=127
key=C#4
lovel=85
offset=4094
sample=Tenor_staccatissimo_FF_C#4_RR3.opus
</region>

<region>
hivel=127
key=C4
lovel=85
offset=4735
sample=Tenor_staccatissimo_FF_C4_RR3.opus
</region>

<region>
hivel=127
key=D#4
lovel=85
offset=8322
sample=Tenor_staccatissimo_FF_D#4_RR3.opus
</region>

<region>
hivel=127
key=D4
lovel=85
offset=5547
sample=Tenor_staccatissimo_FF_D4_RR3.opus
</region>

<region>
hivel=127
key=A#3
lovel=85
offset=233
sample=Tenor_staccatissimo_FF_A#3_RR3.opus
</region>

<region>
hivel=127
key=A3
lovel=85
offset=425
sample=Tenor_staccatissimo_FF_A3_RR3.opus
</region>

<region>
hivel=127
key=B3
lovel=85
offset=154
sample=Tenor_staccatissimo_FF_B3_RR3.opus
</region>

<region>
hivel=127
key=G#3
lovel=85
offset=281
sample=Tenor_staccatissimo_FF_G#3_RR3.opus
</region>

<region>
hivel=127
key=E3
lovel=85
offset=5533
sample=Tenor_staccatissimo_FF_E3_RR3.opus
</region>

<region>
hivel=127
key=F#3
lovel=85
offset=1198
sample=Tenor_staccatissimo_FF_F#3_RR3.opus
</region>

<region>
hivel=127
key=F3
lovel=85
offset=5844
sample=Tenor_staccatissimo_FF_F3_RR3.opus
</region>

<region>
hivel=127
key=G3
lovel=85
offset=1006
sample=Tenor_staccatissimo_FF_G3_RR3.opus
</region>

<region>
hivel=127
key=A#2
lovel=85
offset=5311
sample=Tenor_staccatissimo_FF_A#2_RR3.opus
</region>

<region>
hivel=127
key=A2
lovel=85
offset=5273
sample=Tenor_staccatissimo_FF_A2_RR3.opus
</region>

<region>
hivel=127
key=B2
lovel=85
offset=806
sample=Tenor_staccatissimo_FF_B2_RR3.opus
</region>

<region>
hivel=127
key=C#3
lovel=85
offset=5571
sample=Tenor_staccatissimo_FF_C#3_RR3.opus
</region>

<region>
hivel=127
key=C3
lovel=85
offset=6645
sample=Tenor_staccatissimo_FF_C3_RR3.opus
</region>

<region>
hivel=127
key=D#3
lovel=85
offset=6330
sample=Tenor_staccatissimo_FF_D#3_RR3.opus
</region>

<region>
hivel=127
key=D3
lovel=85
offset=6061
sample=Tenor_staccatissimo_FF_D3_RR3.opus
</region>

<region>
hivel=127
key=G#2
lovel=85
offset=4476
sample=Tenor_staccatissimo_FF_G#2_RR3.opus
</region>

<region>
hivel=84
key=A#4
lovel=43
offset=768
sample=Tenor_staccatissimo_MF_A#4_RR3.opus
</region>

<region>
hivel=84
key=A4
lovel=43
offset=982
sample=Tenor_staccatissimo_MF_A4_RR3.opus
</region>

<region>
hivel=84
key=B4
lovel=43
offset=1003
sample=Tenor_staccatissimo_MF_B4_RR3.opus
</region>

<region>
hivel=84
key=C#5
lovel=43
offset=322
sample=Tenor_staccatissimo_MF_C#5_RR3.opus
</region>

<region>
hivel=84
key=C5
lovel=43
offset=565
sample=Tenor_staccatissimo_MF_C5_RR3.opus
</region>

<region>
hikey=F5
hivel=84
lokey=D#5
lovel=43
offset=5538
pitch_keycenter=D#5
sample=Tenor_staccatissimo_MF_D#5_RR3.opus
</region>

<region>
hivel=84
key=D5
lovel=43
offset=426
sample=Tenor_staccatissimo_MF_D5_RR3.opus
</region>

<region>
hivel=84
key=G#4
lovel=43
offset=5105
sample=Tenor_staccatissimo_MF_G#4_RR3.opus
</region>

<region>
hivel=84
key=A#3
lovel=43
offset=380
sample=Tenor_staccatissimo_MF_A#3_RR3.opus
</region>

<region>
hivel=84
key=A3
lovel=43
offset=1073
sample=Tenor_staccatissimo_MF_A3_RR3.opus
</region>

<region>
hivel=84
key=B3
lovel=43
offset=976
sample=Tenor_staccatissimo_MF_B3_RR3.opus
</region>

<region>
hivel=84
key=C#4
lovel=43
offset=2927
sample=Tenor_staccatissimo_MF_C#4_RR3.opus
</region>

<region>
hivel=84
key=C4
lovel=43
offset=5892
sample=Tenor_staccatissimo_MF_C4_RR3.opus
</region>

<region>
hivel=84
key=D#4
lovel=43
offset=2298
sample=Tenor_staccatissimo_MF_D#4_RR3.opus
</region>

<region>
hivel=84
key=D4
lovel=43
offset=5125
sample=Tenor_staccatissimo_MF_D4_RR3.opus
</region>

<region>
hivel=84
key=E3
lovel=43
offset=5810
sample=Tenor_staccatissimo_MF_E3_RR3.opus
</region>

<region>
hivel=84
key=E4
lovel=43
offset=2757
sample=Tenor_staccatissimo_MF_E4_RR3.opus
</region>

<region>
hivel=84
key=F#3
lovel=43
offset=1947
sample=Tenor_staccatissimo_MF_F#3_RR3.opus
</region>

<region>
hivel=84
key=F#4
lovel=43
offset=5657
sample=Tenor_staccatissimo_MF_F#4_RR3.opus
</region>

<region>
hivel=84
key=F3
lovel=43
offset=1719
sample=Tenor_staccatissimo_MF_F3_RR3.opus
</region>

<region>
hivel=84
key=F4
lovel=43
offset=2032
sample=Tenor_staccatissimo_MF_F4_RR3.opus
</region>

<region>
hivel=84
key=G#3
lovel=43
offset=1657
sample=Tenor_staccatissimo_MF_G#3_RR3.opus
</region>

<region>
hivel=84
key=G3
lovel=43
offset=756
sample=Tenor_staccatissimo_MF_G3_RR3.opus
</region>

<region>
hivel=84
key=G4
lovel=43
offset=4558
sample=Tenor_staccatissimo_MF_G4_RR3.opus
</region>

<region>
hivel=84
key=A#2
lovel=43
offset=5446
sample=Tenor_staccatissimo_MF_A#2_RR3.opus
</region>

<region>
hivel=84
key=A2
lovel=43
offset=5874
sample=Tenor_staccatissimo_MF_A2_RR3.opus
</region>

<region>
hivel=84
key=B2
lovel=43
offset=4998
sample=Tenor_staccatissimo_MF_B2_RR3.opus
</region>

<region>
hivel=84
key=C#3
lovel=43
offset=4083
sample=Tenor_staccatissimo_MF_C#3_RR3.opus
</region>

<region>
hivel=84
key=C3
lovel=43
offset=5818
sample=Tenor_staccatissimo_MF_C3_RR3.opus
</region>

<region>
hivel=84
key=D#3
lovel=43
offset=1018
sample=Tenor_staccatissimo_MF_D#3_RR3.opus
</region>

<region>
hivel=84
key=D3
lovel=43
offset=5091
sample=Tenor_staccatissimo_MF_D3_RR3.opus
</region>

<region>
hivel=84
key=G#2
lovel=43
offset=5723
sample=Tenor_staccatissimo_MF_G#2_RR3.opus
</region>

<region>
hivel=42
key=C#5
lovel=0
offset=47
sample=Tenor_staccatissimo_PP_C#5_RR3.opus
</region>

<region>
hivel=42
key=C5
lovel=0
offset=902
sample=Tenor_staccatissimo_PP_C5_RR3.opus
</region>

<region>
hikey=F5
hivel=42
lokey=D#5
lovel=0
offset=5952
pitch_keycenter=D#5
sample=Tenor_staccatissimo_PP_D#5_RR3.opus
</region>

<region>
hivel=42
key=D5
lovel=0
offset=260
sample=Tenor_staccatissimo_PP_D5_RR3.opus
</region>

<region>
hivel=42
key=A#4
lovel=0
offset=456
sample=Tenor_staccatissimo_PP_A#4_RR3.opus
</region>

<region>
hivel=42
key=A4
lovel=0
offset=501
sample=Tenor_staccatissimo_PP_A4_RR3.opus
</region>

<region>
hivel=42
key=B4
lovel=0
offset=201
sample=Tenor_staccatissimo_PP_B4_RR3.opus
</region>

<region>
hivel=42
key=F#4
lovel=0
offset=1389
sample=Tenor_staccatissimo_PP_F#4_RR3.opus
</region>

<region>
hivel=42
key=G#4
lovel=0
offset=1058
sample=Tenor_staccatissimo_PP_G#4_RR3.opus
</region>

<region>
hivel=42
key=G4
lovel=0
offset=379
sample=Tenor_staccatissimo_PP_G4_RR3.opus
</region>

<region>
hivel=42
key=C#4
lovel=0
offset=952
sample=Tenor_staccatissimo_PP_C#4_RR3.opus
</region>

<region>
hivel=42
key=D#4
lovel=0
offset=1074
sample=Tenor_staccatissimo_PP_D#4_RR3.opus
</region>

<region>
hivel=42
key=D4
lovel=0
offset=1251
sample=Tenor_staccatissimo_PP_D4_RR3.opus
</region>

<region>
hivel=42
key=E4
lovel=0
offset=4377
sample=Tenor_staccatissimo_PP_E4_RR3.opus
</region>

<region>
hivel=42
key=F4
lovel=0
offset=4823
sample=Tenor_staccatissimo_PP_F4_RR3.opus
</region>

<region>
hivel=42
key=A#3
lovel=0
offset=748
sample=Tenor_staccatissimo_PP_A#3_RR3.opus
</region>

<region>
hivel=42
key=A3
lovel=0
offset=436
sample=Tenor_staccatissimo_PP_A3_RR3.opus
</region>

<region>
hivel=42
key=B2
lovel=0
sample=Tenor_staccatissimo_PP_B2_RR3.opus
</region>

<region>
hivel=42
key=B3
lovel=0
offset=713
sample=Tenor_staccatissimo_PP_B3_RR3.opus
</region>

<region>
hivel=42
key=C#3
lovel=0
offset=3095
sample=Tenor_staccatissimo_PP_C#3_RR3.opus
</region>

<region>
hivel=42
key=C3
lovel=0
offset=4348
sample=Tenor_staccatissimo_PP_C3_RR3.opus
</region>

<region>
hivel=42
key=C4
lovel=0
offset=2191
sample=Tenor_staccatissimo_PP_C4_RR3.opus
</region>

<region>
hivel=42
key=D#3
lovel=0
offset=1710
sample=Tenor_staccatissimo_PP_D#3_RR3.opus
</region>

<region>
hivel=42
key=D3
lovel=0
offset=4465
sample=Tenor_staccatissimo_PP_D3_RR3.opus
</region>

<region>
hivel=42
key=E3
lovel=0
offset=1053
sample=Tenor_staccatissimo_PP_E3_RR3.opus
</region>

<region>
hivel=42
key=F#3
lovel=0
offset=3087
sample=Tenor_staccatissimo_PP_F#3_RR3.opus
</region>

<region>
hivel=42
key=F3
lovel=0
offset=731
sample=Tenor_staccatissimo_PP_F3_RR3.opus
</region>

<region>
hivel=42
key=G#3
lovel=0
offset=4368
sample=Tenor_staccatissimo_PP_G#3_RR3.opus
</region>

<region>
hivel=42
key=G3
lovel=0
offset=2929
sample=Tenor_staccatissimo_PP_G3_RR3.opus
</region>

<region>
hivel=42
key=A#2
lovel=0
sample=Tenor_staccatissimo_PP_A#2_RR3.opus
</region>

<region>
hivel=42
key=A2
lovel=0
offset=4255
sample=Tenor_staccatissimo_PP_A2_RR3.opus
</region>

<region>
hivel=42
key=G#2
lovel=0
offset=4878
sample=Tenor_staccatissimo_PP_G#2_RR3.opus
</region>
</group>

<group>
group_label=RR4
seq_length=8
seq_position=4

<region>
hivel=127
key=A#4
lovel=85
offset=386
sample=Tenor_staccatissimo_FF_A#4_RR4.opus
</region>

<region>
hivel=127
key=A4
lovel=85
offset=623
sample=Tenor_staccatissimo_FF_A4_RR4.opus
</region>

<region>
hivel=127
key=B4
lovel=85
offset=306
sample=Tenor_staccatissimo_FF_B4_RR4.opus
</region>

<region>
hivel=127
key=C#5
lovel=85
sample=Tenor_staccatissimo_FF_C#5_RR4.opus
</region>

<region>
hivel=127
key=C5
lovel=85
offset=195
sample=Tenor_staccatissimo_FF_C5_RR4.opus
</region>

<region>
hikey=F5
hivel=127
lokey=D#5
lovel=85
offset=6523
pitch_keycenter=D#5
sample=Tenor_staccatissimo_FF_D#5_RR4.opus
</region>

<region>
hivel=127
key=D5
lovel=85
sample=Tenor_staccatissimo_FF_D5_RR4.opus
</region>

<region>
hivel=127
key=E4
lovel=85
offset=4731
sample=Tenor_staccatissimo_FF_E4_RR4.opus
</region>

<region>
hivel=127
key=F#4
lovel=85
offset=2754
sample=Tenor_staccatissimo_FF_F#4_RR4.opus
</region>

<region>
hivel=127
key=F4
lovel=85
offset=680
sample=Tenor_staccatissimo_FF_F4_RR4.opus
</region>

<region>
hivel=127
key=G#4
lovel=85
offset=1330
sample=Tenor_staccatissimo_FF_G#4_RR4.opus
</region>

<region>
hivel=127
key=G4
lovel=85
offset=1710
sample=Tenor_staccatissimo_FF_G4_RR4.opus
</region>

<region>
hivel=127
key=C#4
lovel=85
offset=4763
sample=Tenor_staccatissimo_FF_C#4_RR4.opus
</region>

<region>
hivel=127
key=C4
lovel=85
offset=4449
sample=Tenor_staccatissimo_FF_C4_RR4.opus
</region>

<region>
hivel=127
key=D#4
lovel=85
offset=8727
sample=Tenor_staccatissimo_FF_D#4_RR4.opus
</region>

<region>
hivel=127
key=D4
lovel=85
offset=7686
sample=Tenor_staccatissimo_FF_D4_RR4.opus
</region>

<region>
hivel=127
key=A#3
lovel=85
offset=179
sample=Tenor_staccatissimo_FF_A#3_RR4.opus
</region>

<region>
hivel=127
key=A3
lovel=85
offset=988
sample=Tenor_staccatissimo_FF_A3_RR4.opus
</region>

<region>
hivel=127
key=B3
lovel=85
offset=296
sample=Tenor_staccatissimo_FF_B3_RR4.opus
</region>

<region>
hivel=127
key=G#3
lovel=85
offset=711
sample=Tenor_staccatissimo_FF_G#3_RR4.opus
</region>

<region>
hivel=127
key=E3
lovel=85
offset=7153
sample=Tenor_staccatissimo_FF_E3_RR4.opus
</region>

<region>
hivel=127
key=F#3
lovel=85
offset=1269
sample=Tenor_staccatissimo_FF_F#3_RR4.opus
</region>

<region>
hivel=127
key=F3
lovel=85
offset=608
sample=Tenor_staccatissimo_FF_F3_RR4.opus
</region>

<region>
hivel=127
key=G3
lovel=85
offset=656
sample=Tenor_staccatissimo_FF_G3_RR4.opus
</region>

<region>
hivel=127
key=A#2
lovel=85
offset=6170
sample=Tenor_staccatissimo_FF_A#2_RR4.opus
</region>

<region>
hivel=127
key=A2
lovel=85
offset=5220
sample=Tenor_staccatissimo_FF_A2_RR4.opus
</region>

<region>
hivel=127
key=B2
lovel=85
offset=798
sample=Tenor_staccatissimo_FF_B2_RR4.opus
</region>

<region>
hivel=127
key=C#3
lovel=85
offset=4435
sample=Tenor_staccatissimo_FF_C#3_RR4.opus
</region>

<region>
hivel=127
key=C3
lovel=85
offset=7983
sample=Tenor_staccatissimo_FF_C3_RR4.opus
</region>

<region>
hivel=127
key=D#3
lovel=85
offset=5614
sample=Tenor_staccatissimo_FF_D#3_RR4.opus
</region>

<region>
hivel=127
key=D3
lovel=85
offset=4934
sample=Tenor_staccatissimo_FF_D3_RR4.opus
</region>

<region>
hivel=127
key=G#2
lovel=85
offset=4774
sample=Tenor_staccatissimo_FF_G#2_RR4.opus
</region>

<region>
hivel=84
key=A#4
lovel=43
offset=1345
sample=Tenor_staccatissimo_MF_A#4_RR4.opus
</region>

<region>
hivel=84
key=A4
lovel=43
offset=1093
sample=Tenor_staccatissimo_MF_A4_RR4.opus
</region>

<region>
hivel=84
key=B4
lovel=43
offset=218
sample=Tenor_staccatissimo_MF_B4_RR4.opus
</region>

<region>
hivel=84
key=C#5
lovel=43
offset=408
sample=Tenor_staccatissimo_MF_C#5_RR4.opus
</region>

<region>
hivel=84
key=C5
lovel=43
offset=726
sample=Tenor_staccatissimo_MF_C5_RR4.opus
</region>

<region>
hikey=F5
hivel=84
lokey=D#5
lovel=43
offset=5280
pitch_keycenter=D#5
sample=Tenor_staccatissimo_MF_D#5_RR4.opus
</region>

<region>
hivel=84
key=D5
lovel=43
offset=357
sample=Tenor_staccatissimo_MF_D5_RR4.opus
</region>

<region>
hivel=84
key=G#4
lovel=43
offset=857
sample=Tenor_staccatissimo_MF_G#4_RR4.opus
</region>

<region>
hivel=84
key=A#3
lovel=43
offset=1007
sample=Tenor_staccatissimo_MF_A#3_RR4.opus
</region>

<region>
hivel=84
key=A3
lovel=43
offset=705
sample=Tenor_staccatissimo_MF_A3_RR4.opus
</region>

<region>
hivel=84
key=B3
lovel=43
offset=938
sample=Tenor_staccatissimo_MF_B3_RR4.opus
</region>

<region>
hivel=84
key=C#4
lovel=43
offset=4253
sample=Tenor_staccatissimo_MF_C#4_RR4.opus
</region>

<region>
hivel=84
key=C4
lovel=43
offset=6980
sample=Tenor_staccatissimo_MF_C4_RR4.opus
</region>

<region>
hivel=84
key=D#4
lovel=43
offset=1616
sample=Tenor_staccatissimo_MF_D#4_RR4.opus
</region>

<region>
hivel=84
key=D4
lovel=43
offset=4458
sample=Tenor_staccatissimo_MF_D4_RR4.opus
</region>

<region>
hivel=84
key=E3
lovel=43
offset=6691
sample=Tenor_staccatissimo_MF_E3_RR4.opus
</region>

<region>
hivel=84
key=E4
lovel=43
offset=2602
sample=Tenor_staccatissimo_MF_E4_RR4.opus
</region>

<region>
hivel=84
key=F#3
lovel=43
offset=4164
sample=Tenor_staccatissimo_MF_F#3_RR4.opus
</region>

<region>
hivel=84
key=F#4
lovel=43
offset=5554
sample=Tenor_staccatissimo_MF_F#4_RR4.opus
</region>

<region>
hivel=84
key=F3
lovel=43
offset=5397
sample=Tenor_staccatissimo_MF_F3_RR4.opus
</region>

<region>
hivel=84
key=F4
lovel=43
offset=3972
sample=Tenor_staccatissimo_MF_F4_RR4.opus
</region>

<region>
hivel=84
key=G#3
lovel=43
offset=741
sample=Tenor_staccatissimo_MF_G#3_RR4.opus
</region>

<region>
hivel=84
key=G3
lovel=43
offset=982
sample=Tenor_staccatissimo_MF_G3_RR4.opus
</region>

<region>
hivel=84
key=G4
lovel=43
offset=402
sample=Tenor_staccatissimo_MF_G4_RR4.opus
</region>

<region>
hivel=84
key=A#2
lovel=43
offset=114
sample=Tenor_staccatissimo_MF_A#2_RR4.opus
</region>

<region>
hivel=84
key=A2
lovel=43
offset=5932
sample=Tenor_staccatissimo_MF_A2_RR4.opus
</region>

<region>
hivel=84
key=B2
lovel=43
offset=4989
sample=Tenor_staccatissimo_MF_B2_RR4.opus
</region>

<region>
hivel=84
key=C#3
lovel=43
offset=5470
sample=Tenor_staccatissimo_MF_C#3_RR4.opus
</region>

<region>
hivel=84
key=C3
lovel=43
offset=5802
sample=Tenor_staccatissimo_MF_C3_RR4.opus
</region>

<region>
hivel=84
key=D#3
lovel=43
offset=1050
sample=Tenor_staccatissimo_MF_D#3_RR4.opus
</region>

<region>
hivel=84
key=D3
lovel=43
offset=5786
sample=Tenor_staccatissimo_MF_D3_RR4.opus
</region>

<region>
hivel=84
key=G#2
lovel=43
sample=Tenor_staccatissimo_MF_G#2_RR4.opus
</region>

<region>
hivel=42
key=C#5
lovel=0
offset=51
sample=Tenor_staccatissimo_PP_C#5_RR4.opus
</region>

<region>
hivel=42
key=C5
lovel=0
offset=636
sample=Tenor_staccatissimo_PP_C5_RR4.opus
</region>

<region>
hikey=F5
hivel=42
lokey=D#5
lovel=0
offset=5807
pitch_keycenter=D#5
sample=Tenor_staccatissimo_PP_D#5_RR4.opus
</region>

<region>
hivel=42
key=D5
lovel=0
offset=278
sample=Tenor_staccatissimo_PP_D5_RR4.opus
</region>

<region>
hivel=42
key=A#4
lovel=0
offset=684
sample=Tenor_staccatissimo_PP_A#4_RR4.opus
</region>

<region>
hivel=42
key=A4
lovel=0
offset=733
sample=Tenor_staccatissimo_PP_A4_RR4.opus
</region>

<region>
hivel=42
key=B4
lovel=0
offset=399
sample=Tenor_staccatissimo_PP_B4_RR4.opus
</region>

<region>
hivel=42
key=F#4
lovel=0
offset=3848
sample=Tenor_staccatissimo_PP_F#4_RR4.opus
</region>

<region>
hivel=42
key=G#4
lovel=0
offset=711
sample=Tenor_staccatissimo_PP_G#4_RR4.opus
</region>

<region>
hivel=42
key=G4
lovel=0
offset=522
sample=Tenor_staccatissimo_PP_G4_RR4.opus
</region>

<region>
hivel=42
key=C#4
lovel=0
offset=2458
sample=Tenor_staccatissimo_PP_C#4_RR4.opus
</region>

<region>
hivel=42
key=D#4
lovel=0
offset=1472
sample=Tenor_staccatissimo_PP_D#4_RR4.opus
</region>

<region>
hivel=42
key=D4
lovel=0
offset=2484
sample=Tenor_staccatissimo_PP_D4_RR4.opus
</region>

<region>
hivel=42
key=E4
lovel=0
offset=2030
sample=Tenor_staccatissimo_PP_E4_RR4.opus
</region>

<region>
hivel=42
key=F4
lovel=0
offset=5406
sample=Tenor_staccatissimo_PP_F4_RR4.opus
</region>

<region>
hivel=42
key=A#3
lovel=0
offset=744
sample=Tenor_staccatissimo_PP_A#3_RR4.opus
</region>

<region>
hivel=42
key=A3
lovel=0
offset=875
sample=Tenor_staccatissimo_PP_A3_RR4.opus
</region>

<region>
hivel=42
key=B2
lovel=0
offset=5983
sample=Tenor_staccatissimo_PP_B2_RR4.opus
</region>

<region>
hivel=42
key=B3
lovel=0
offset=711
sample=Tenor_staccatissimo_PP_B3_RR4.opus
</region>

<region>
hivel=42
key=C#3
lovel=0
offset=5136
sample=Tenor_staccatissimo_PP_C#3_RR4.opus
</region>

<region>
hivel=42
key=C3
lovel=0
offset=6040
sample=Tenor_staccatissimo_PP_C3_RR4.opus
</region>

<region>
hivel=42
key=C4
lovel=0
offset=1074
sample=Tenor_staccatissimo_PP_C4_RR4.opus
</region>

<region>
hivel=42
key=D#3
lovel=0
offset=5067
sample=Tenor_staccatissimo_PP_D#3_RR4.opus
</region>

<region>
hivel=42
key=D3
lovel=0
offset=4473
sample=Tenor_staccatissimo_PP_D3_RR4.opus
</region>

<region>
hivel=42
key=E3
lovel=0
offset=3091
sample=Tenor_staccatissimo_PP_E3_RR4.opus
</region>

<region>
hivel=42
key=F#3
lovel=0
offset=1574
sample=Tenor_staccatissimo_PP_F#3_RR4.opus
</region>

<region>
hivel=42
key=F3
lovel=0
offset=721
sample=Tenor_staccatissimo_PP_F3_RR4.opus
</region>

<region>
hivel=42
key=G#3
lovel=0
offset=3492
sample=Tenor_staccatissimo_PP_G#3_RR4.opus
</region>

<region>
hivel=42
key=G3
lovel=0
offset=1719
sample=Tenor_staccatissimo_PP_G3_RR4.opus
</region>

<region>
hivel=42
key=A#2
lovel=0
sample=Tenor_staccatissimo_PP_A#2_RR4.opus
</region>

<region>
hivel=42
key=A2
lovel=0
offset=4215
sample=Tenor_staccatissimo_PP_A2_RR4.opus
</region>

<region>
hivel=42
key=G#2
lovel=0
sample=Tenor_staccatissimo_PP_G#2_RR4.opus
</region>
</group>

<group>
group_label=RR5
seq_length=8
seq_position=5

<region>
hivel=127
key=A#4
lovel=85
offset=1708
sample=Tenor_staccatissimo_FF_A#4_RR5.opus
</region>

<region>
hivel=127
key=A4
lovel=85
offset=1318
sample=Tenor_staccatissimo_FF_A4_RR5.opus
</region>

<region>
hivel=127
key=B4
lovel=85
offset=261
sample=Tenor_staccatissimo_FF_B4_RR5.opus
</region>

<region>
hivel=127
key=C#5
lovel=85
offset=94
sample=Tenor_staccatissimo_FF_C#5_RR5.opus
</region>

<region>
hivel=127
key=C5
lovel=85
offset=10
sample=Tenor_staccatissimo_FF_C5_RR5.opus
</region>

<region>
hikey=F5
hivel=127
lokey=D#5
lovel=85
offset=6536
pitch_keycenter=D#5
sample=Tenor_staccatissimo_FF_D#5_RR5.opus
</region>

<region>
hivel=127
key=D5
lovel=85
sample=Tenor_staccatissimo_FF_D5_RR5.opus
</region>

<region>
hivel=127
key=E4
lovel=85
offset=6467
sample=Tenor_staccatissimo_FF_E4_RR5.opus
</region>

<region>
hivel=127
key=F#4
lovel=85
offset=1649
sample=Tenor_staccatissimo_FF_F#4_RR5.opus
</region>

<region>
hivel=127
key=F4
lovel=85
offset=1524
sample=Tenor_staccatissimo_FF_F4_RR5.opus
</region>

<region>
hivel=127
key=G#4
lovel=85
offset=2319
sample=Tenor_staccatissimo_FF_G#4_RR5.opus
</region>

<region>
hivel=127
key=G4
lovel=85
offset=1130
sample=Tenor_staccatissimo_FF_G4_RR5.opus
</region>

<region>
hivel=127
key=C#4
lovel=85
offset=3920
sample=Tenor_staccatissimo_FF_C#4_RR5.opus
</region>

<region>
hivel=127
key=C4
lovel=85
offset=4586
sample=Tenor_staccatissimo_FF_C4_RR5.opus
</region>

<region>
hivel=127
key=D#4
lovel=85
offset=7195
sample=Tenor_staccatissimo_FF_D#4_RR5.opus
</region>

<region>
hivel=127
key=D4
lovel=85
offset=6888
sample=Tenor_staccatissimo_FF_D4_RR5.opus
</region>

<region>
hivel=127
key=A#3
lovel=85
offset=753
sample=Tenor_staccatissimo_FF_A#3_RR5.opus
</region>

<region>
hivel=127
key=A3
lovel=85
offset=735
sample=Tenor_staccatissimo_FF_A3_RR5.opus
</region>

<region>
hivel=127
key=B3
lovel=85
offset=350
sample=Tenor_staccatissimo_FF_B3_RR5.opus
</region>

<region>
hivel=127
key=G#3
lovel=85
offset=275
sample=Tenor_staccatissimo_FF_G#3_RR5.opus
</region>

<region>
hivel=127
key=E3
lovel=85
offset=5581
sample=Tenor_staccatissimo_FF_E3_RR5.opus
</region>

<region>
hivel=127
key=F#3
lovel=85
offset=830
sample=Tenor_staccatissimo_FF_F#3_RR5.opus
</region>

<region>
hivel=127
key=F3
lovel=85
offset=943
sample=Tenor_staccatissimo_FF_F3_RR5.opus
</region>

<region>
hivel=127
key=G3
lovel=85
offset=773
sample=Tenor_staccatissimo_FF_G3_RR5.opus
</region>

<region>
hivel=127
key=A#2
lovel=85
offset=4562
sample=Tenor_staccatissimo_FF_A#2_RR5.opus
</region>

<region>
hivel=127
key=A2
lovel=85
offset=6510
sample=Tenor_staccatissimo_FF_A2_RR5.opus
</region>

<region>
hivel=127
key=B2
lovel=85
offset=835
sample=Tenor_staccatissimo_FF_B2_RR5.opus
</region>

<region>
hivel=127
key=C#3
lovel=85
offset=4936
sample=Tenor_staccatissimo_FF_C#3_RR5.opus
</region>

<region>
hivel=127
key=C3
lovel=85
offset=6184
sample=Tenor_staccatissimo_FF_C3_RR5.opus
</region>

<region>
hivel=127
key=D#3
lovel=85
offset=223
sample=Tenor_staccatissimo_FF_D#3_RR5.opus
</region>

<region>
hivel=127
key=D3
lovel=85
offset=5251
sample=Tenor_staccatissimo_FF_D3_RR5.opus
</region>

<region>
hivel=127
key=G#2
lovel=85
offset=602
sample=Tenor_staccatissimo_FF_G#2_RR5.opus
</region>

<region>
hivel=84
key=A#4
lovel=43
offset=364
sample=Tenor_staccatissimo_MF_A#4_RR5.opus
</region>

<region>
hivel=84
key=A4
lovel=43
offset=761
sample=Tenor_staccatissimo_MF_A4_RR5.opus
</region>

<region>
hivel=84
key=B4
lovel=43
offset=511
sample=Tenor_staccatissimo_MF_B4_RR5.opus
</region>

<region>
hivel=84
key=C#5
lovel=43
offset=242
sample=Tenor_staccatissimo_MF_C#5_RR5.opus
</region>

<region>
hivel=84
key=C5
lovel=43
offset=466
sample=Tenor_staccatissimo_MF_C5_RR5.opus
</region>

<region>
hikey=F5
hivel=84
lokey=D#5
lovel=43
offset=5347
pitch_keycenter=D#5
sample=Tenor_staccatissimo_MF_D#5_RR5.opus
</region>

<region>
hivel=84
key=D5
lovel=43
offset=271
sample=Tenor_staccatissimo_MF_D5_RR5.opus
</region>

<region>
hivel=84
key=G#4
lovel=43
offset=694
sample=Tenor_staccatissimo_MF_G#4_RR5.opus
</region>

<region>
hivel=84
key=A#3
lovel=43
offset=931
sample=Tenor_staccatissimo_MF_A#3_RR5.opus
</region>

<region>
hivel=84
key=A3
lovel=43
offset=708
sample=Tenor_staccatissimo_MF_A3_RR5.opus
</region>

<region>
hivel=84
key=B3
lovel=43
offset=331
sample=Tenor_staccatissimo_MF_B3_RR5.opus
</region>

<region>
hivel=84
key=C#4
lovel=43
offset=4455
sample=Tenor_staccatissimo_MF_C#4_RR5.opus
</region>

<region>
hivel=84
key=C4
lovel=43
offset=1015
sample=Tenor_staccatissimo_MF_C4_RR5.opus
</region>

<region>
hivel=84
key=D#4
lovel=43
offset=1344
sample=Tenor_staccatissimo_MF_D#4_RR5.opus
</region>

<region>
hivel=84
key=D4
lovel=43
offset=1660
sample=Tenor_staccatissimo_MF_D4_RR5.opus
</region>

<region>
hivel=84
key=E3
lovel=43
offset=5992
sample=Tenor_staccatissimo_MF_E3_RR5.opus
</region>

<region>
hivel=84
key=E4
lovel=43
offset=5782
sample=Tenor_staccatissimo_MF_E4_RR5.opus
</region>

<region>
hivel=84
key=F#3
lovel=43
offset=2461
sample=Tenor_staccatissimo_MF_F#3_RR5.opus
</region>

<region>
hivel=84
key=F#4
lovel=43
offset=6248
sample=Tenor_staccatissimo_MF_F#4_RR5.opus
</region>

<region>
hivel=84
key=F3
lovel=43
offset=4889
sample=Tenor_staccatissimo_MF_F3_RR5.opus
</region>

<region>
hivel=84
key=F4
lovel=43
offset=5163
sample=Tenor_staccatissimo_MF_F4_RR5.opus
</region>

<region>
hivel=84
key=G#3
lovel=43
offset=931
sample=Tenor_staccatissimo_MF_G#3_RR5.opus
</region>

<region>
hivel=84
key=G3
lovel=43
offset=1249
sample=Tenor_staccatissimo_MF_G3_RR5.opus
</region>

<region>
hivel=84
key=G4
lovel=43
offset=886
sample=Tenor_staccatissimo_MF_G4_RR5.opus
</region>

<region>
hivel=84
key=A#2
lovel=43
offset=4441
sample=Tenor_staccatissimo_MF_A#2_RR5.opus
</region>

<region>
hivel=84
key=A2
lovel=43
offset=6827
sample=Tenor_staccatissimo_MF_A2_RR5.opus
</region>

<region>
hivel=84
key=B2
lovel=43
offset=5141
sample=Tenor_staccatissimo_MF_B2_RR5.opus
</region>

<region>
hivel=84
key=C#3
lovel=43
offset=4841
sample=Tenor_staccatissimo_MF_C#3_RR5.opus
</region>

<region>
hivel=84
key=C3
lovel=43
offset=7196
sample=Tenor_staccatissimo_MF_C3_RR5.opus
</region>

<region>
hivel=84
key=D#3
lovel=43
offset=6768
sample=Tenor_staccatissimo_MF_D#3_RR5.opus
</region>

<region>
hivel=84
key=D3
lovel=43
offset=5439
sample=Tenor_staccatissimo_MF_D3_RR5.opus
</region>

<region>
hivel=84
key=G#2
lovel=43
offset=715
sample=Tenor_staccatissimo_MF_G#2_RR5.opus
</region>

<region>
hivel=42
key=C#5
lovel=0
sample=Tenor_staccatissimo_PP_C#5_RR5.opus
</region>

<region>
hivel=42
key=C5
lovel=0
offset=724
sample=Tenor_staccatissimo_PP_C5_RR5.opus
</region>

<region>
hikey=F5
hivel=42
lokey=D#5
lovel=0
offset=6553
pitch_keycenter=D#5
sample=Tenor_staccatissimo_PP_D#5_RR5.opus
</region>

<region>
hivel=42
key=D5
lovel=0
offset=173
sample=Tenor_staccatissimo_PP_D5_RR5.opus
</region>

<region>
hivel=42
key=A#4
lovel=0
offset=1512
sample=Tenor_staccatissimo_PP_A#4_RR5.opus
</region>

<region>
hivel=42
key=A4
lovel=0
offset=608
sample=Tenor_staccatissimo_PP_A4_RR5.opus
</region>

<region>
hivel=42
key=B4
lovel=0
offset=316
sample=Tenor_staccatissimo_PP_B4_RR5.opus
</region>

<region>
hivel=42
key=F#4
lovel=0
offset=1608
sample=Tenor_staccatissimo_PP_F#4_RR5.opus
</region>

<region>
hivel=42
key=G#4
lovel=0
offset=692
sample=Tenor_staccatissimo_PP_G#4_RR5.opus
</region>

<region>
hivel=42
key=G4
lovel=0
offset=866
sample=Tenor_staccatissimo_PP_G4_RR5.opus
</region>

<region>
hivel=42
key=C#4
lovel=0
offset=454
sample=Tenor_staccatissimo_PP_C#4_RR5.opus
</region>

<region>
hivel=42
key=D#4
lovel=0
offset=1283
sample=Tenor_staccatissimo_PP_D#4_RR5.opus
</region>

<region>
hivel=42
key=D4
lovel=0
offset=883
sample=Tenor_staccatissimo_PP_D4_RR5.opus
</region>

<region>
hivel=42
key=E4
lovel=0
offset=7008
sample=Tenor_staccatissimo_PP_E4_RR5.opus
</region>

<region>
hivel=42
key=F4
lovel=0
offset=1795
sample=Tenor_staccatissimo_PP_F4_RR5.opus
</region>

<region>
hivel=42
key=A#3
lovel=0
offset=1157
sample=Tenor_staccatissimo_PP_A#3_RR5.opus
</region>

<region>
hivel=42
key=A3
lovel=0
offset=1061
sample=Tenor_staccatissimo_PP_A3_RR5.opus
</region>

<region>
hivel=42
key=B2
lovel=0
offset=4879
sample=Tenor_staccatissimo_PP_B2_RR5.opus
</region>

<region>
hivel=42
key=B3
lovel=0
offset=878
sample=Tenor_staccatissimo_PP_B3_RR5.opus
</region>

<region>
hivel=42
key=C#3
lovel=0
offset=4168
sample=Tenor_staccatissimo_PP_C#3_RR5.opus
</region>

<region>
hivel=42
key=C3
lovel=0
offset=5263
sample=Tenor_staccatissimo_PP_C3_RR5.opus
</region>

<region>
hivel=42
key=C4
lovel=0
offset=10683
sample=Tenor_staccatissimo_PP_C4_RR5.opus
</region>

<region>
hivel=42
key=D#3
lovel=0
offset=3561
sample=Tenor_staccatissimo_PP_D#3_RR5.opus
</region>

<region>
hivel=42
key=D3
lovel=0
offset=5859
sample=Tenor_staccatissimo_PP_D3_RR5.opus
</region>

<region>
hivel=42
key=E3
lovel=0
offset=2522
sample=Tenor_staccatissimo_PP_E3_RR5.opus
</region>

<region>
hivel=42
key=F#3
lovel=0
offset=1846
sample=Tenor_staccatissimo_PP_F#3_RR5.opus
</region>

<region>
hivel=42
key=F3
lovel=0
offset=620
sample=Tenor_staccatissimo_PP_F3_RR5.opus
</region>

<region>
hivel=42
key=G#3
lovel=0
offset=914
sample=Tenor_staccatissimo_PP_G#3_RR5.opus
</region>

<region>
hivel=42
key=G3
lovel=0
offset=4140
sample=Tenor_staccatissimo_PP_G3_RR5.opus
</region>

<region>
hivel=42
key=A#2
lovel=0
sample=Tenor_staccatissimo_PP_A#2_RR5.opus
</region>

<region>
hivel=42
key=A2
lovel=0
offset=4313
sample=Tenor_staccatissimo_PP_A2_RR5.opus
</region>

<region>
hivel=42
key=G#2
lovel=0
offset=2948
sample=Tenor_staccatissimo_PP_G#2_RR5.opus
</region>
</group>

<group>
group_label=RR6
seq_length=8
seq_position=6

<region>
hivel=127
key=A#4
lovel=85
offset=1103
sample=Tenor_staccatissimo_FF_A#4_RR6.opus
</region>

<region>
hivel=127
key=A4
lovel=85
offset=1016
sample=Tenor_staccatissimo_FF_A4_RR6.opus
</region>

<region>
hivel=127
key=B4
lovel=85
offset=422
sample=Tenor_staccatissimo_FF_B4_RR6.opus
</region>

<region>
hivel=127
key=C#5
lovel=85
offset=836
sample=Tenor_staccatissimo_FF_C#5_RR6.opus
</region>

<region>
hivel=127
key=C5
lovel=85
offset=4
sample=Tenor_staccatissimo_FF_C5_RR6.opus
</region>

<region>
hikey=F5
hivel=127
lokey=D#5
lovel=85
offset=5118
pitch_keycenter=D#5
sample=Tenor_staccatissimo_FF_D#5_RR6.opus
</region>

<region>
hivel=127
key=D5
lovel=85
offset=39
sample=Tenor_staccatissimo_FF_D5_RR6.opus
</region>

<region>
hivel=127
key=E4
lovel=85
offset=7552
sample=Tenor_staccatissimo_FF_E4_RR6.opus
</region>

<region>
hivel=127
key=F#4
lovel=85
offset=935
sample=Tenor_staccatissimo_FF_F#4_RR6.opus
</region>

<region>
hivel=127
key=F4
lovel=85
offset=1183
sample=Tenor_staccatissimo_FF_F4_RR6.opus
</region>

<region>
hivel=127
key=G#4
lovel=85
offset=713
sample=Tenor_staccatissimo_FF_G#4_RR6.opus
</region>

<region>
hivel=127
key=G4
lovel=85
offset=954
sample=Tenor_staccatissimo_FF_G4_RR6.opus
</region>

<region>
hivel=127
key=C#4
lovel=85
offset=1040
sample=Tenor_staccatissimo_FF_C#4_RR6.opus
</region>

<region>
hivel=127
key=C4
lovel=85
offset=6067
sample=Tenor_staccatissimo_FF_C4_RR6.opus
</region>

<region>
hivel=127
key=D#4
lovel=85
offset=500
sample=Tenor_staccatissimo_FF_D#4_RR6.opus
</region>

<region>
hivel=127
key=D4
lovel=85
offset=4495
sample=Tenor_staccatissimo_FF_D4_RR6.opus
</region>

<region>
hivel=127
key=A#3
lovel=85
offset=187
sample=Tenor_staccatissimo_FF_A#3_RR6.opus
</region>

<region>
hivel=127
key=A3
lovel=85
offset=725
sample=Tenor_staccatissimo_FF_A3_RR6.opus
</region>

<region>
hivel=127
key=B3
lovel=85
sample=Tenor_staccatissimo_FF_B3_RR6.opus
</region>

<region>
hivel=127
key=G#3
lovel=85
offset=908
sample=Tenor_staccatissimo_FF_G#3_RR6.opus
</region>

<region>
hivel=127
key=E3
lovel=85
offset=1379
sample=Tenor_staccatissimo_FF_E3_RR6.opus
</region>

<region>
hivel=127
key=F#3
lovel=85
offset=757
sample=Tenor_staccatissimo_FF_F#3_RR6.opus
</region>

<region>
hivel=127
key=F3
lovel=85
offset=597
sample=Tenor_staccatissimo_FF_F3_RR6.opus
</region>

<region>
hivel=127
key=G3
lovel=85
offset=403
sample=Tenor_staccatissimo_FF_G3_RR6.opus
</region>

<region>
hivel=127
key=A#2
lovel=85
offset=4039
sample=Tenor_staccatissimo_FF_A#2_RR6.opus
</region>

<region>
hivel=127
key=A2
lovel=85
offset=6555
sample=Tenor_staccatissimo_FF_A2_RR6.opus
</region>

<region>
hivel=127
key=B2
lovel=85
offset=6984
sample=Tenor_staccatissimo_FF_B2_RR6.opus
</region>

<region>
hivel=127
key=C#3
lovel=85
offset=4165
sample=Tenor_staccatissimo_FF_C#3_RR6.opus
</region>

<region>
hivel=127
key=C3
lovel=85
offset=6549
sample=Tenor_staccatissimo_FF_C3_RR6.opus
</region>

<region>
hivel=127
key=D#3
lovel=85
offset=4925
sample=Tenor_staccatissimo_FF_D#3_RR6.opus
</region>

<region>
hivel=127
key=D3
lovel=85
offset=5201
sample=Tenor_staccatissimo_FF_D3_RR6.opus
</region>

<region>
hivel=127
key=G#2
lovel=85
offset=225
sample=Tenor_staccatissimo_FF_G#2_RR6.opus
</region>

<region>
hivel=84
key=A#4
lovel=43
offset=5526
sample=Tenor_staccatissimo_MF_A#4_RR6.opus
</region>

<region>
hivel=84
key=A4
lovel=43
offset=765
sample=Tenor_staccatissimo_MF_A4_RR6.opus
</region>

<region>
hivel=84
key=B4
lovel=43
offset=414
sample=Tenor_staccatissimo_MF_B4_RR6.opus
</region>

<region>
hivel=84
key=C#5
lovel=43
offset=312
sample=Tenor_staccatissimo_MF_C#5_RR6.opus
</region>

<region>
hivel=84
key=C5
lovel=43
offset=475
sample=Tenor_staccatissimo_MF_C5_RR6.opus
</region>

<region>
hikey=F5
hivel=84
lokey=D#5
lovel=43
offset=4818
pitch_keycenter=D#5
sample=Tenor_staccatissimo_MF_D#5_RR6.opus
</region>

<region>
hivel=84
key=D5
lovel=43
offset=282
sample=Tenor_staccatissimo_MF_D5_RR6.opus
</region>

<region>
hivel=84
key=G#4
lovel=43
offset=1499
sample=Tenor_staccatissimo_MF_G#4_RR6.opus
</region>

<region>
hivel=84
key=A#3
lovel=43
offset=786
sample=Tenor_staccatissimo_MF_A#3_RR6.opus
</region>

<region>
hivel=84
key=A3
lovel=43
offset=1584
sample=Tenor_staccatissimo_MF_A3_RR6.opus
</region>

<region>
hivel=84
key=B3
lovel=43
offset=923
sample=Tenor_staccatissimo_MF_B3_RR6.opus
</region>

<region>
hivel=84
key=C#4
lovel=43
offset=1263
sample=Tenor_staccatissimo_MF_C#4_RR6.opus
</region>

<region>
hivel=84
key=C4
lovel=43
offset=6578
sample=Tenor_staccatissimo_MF_C4_RR6.opus
</region>

<region>
hivel=84
key=D#4
lovel=43
offset=1699
sample=Tenor_staccatissimo_MF_D#4_RR6.opus
</region>

<region>
hivel=84
key=D4
lovel=43
offset=1205
sample=Tenor_staccatissimo_MF_D4_RR6.opus
</region>

<region>
hivel=84
key=E3
lovel=43
offset=8738
sample=Tenor_staccatissimo_MF_E3_RR6.opus
</region>

<region>
hivel=84
key=E4
lovel=43
offset=6732
sample=Tenor_staccatissimo_MF_E4_RR6.opus
</region>

<region>
hivel=84
key=F#3
lovel=43
offset=916
sample=Tenor_staccatissimo_MF_F#3_RR6.opus
</region>

<region>
hivel=84
key=F#4
lovel=43
offset=5280
sample=Tenor_staccatissimo_MF_F#4_RR6.opus
</region>

<region>
hivel=84
key=F3
lovel=43
offset=5046
sample=Tenor_staccatissimo_MF_F3_RR6.opus
</region>

<region>
hivel=84
key=F4
lovel=43
offset=5114
sample=Tenor_staccatissimo_MF_F4_RR6.opus
</region>

<region>
hivel=84
key=G#3
lovel=43
offset=701
sample=Tenor_staccatissimo_MF_G#3_RR6.opus
</region>

<region>
hivel=84
key=G3
lovel=43
offset=1255
sample=Tenor_staccatissimo_MF_G3_RR6.opus
</region>

<region>
hivel=84
key=G4
lovel=43
offset=5067
sample=Tenor_staccatissimo_MF_G4_RR6.opus
</region>

<region>
hivel=84
key=A#2
lovel=43
offset=5570
sample=Tenor_staccatissimo_MF_A#2_RR6.opus
</region>

<region>
hivel=84
key=A2
lovel=43
offset=7359
sample=Tenor_staccatissimo_MF_A2_RR6.opus
</region>

<region>
hivel=84
key=B2
lovel=43
offset=5305
sample=Tenor_staccatissimo_MF_B2_RR6.opus
</region>

<region>
hivel=84
key=C#3
lovel=43
offset=5156
sample=Tenor_staccatissimo_MF_C#3_RR6.opus
</region>

<region>
hivel=84
key=C3
lovel=43
offset=5067
sample=Tenor_staccatissimo_MF_C3_RR6.opus
</region>

<region>
hivel=84
key=D#3
lovel=43
offset=1688
sample=Tenor_staccatissimo_MF_D#3_RR6.opus
</region>

<region>
hivel=84
key=D3
lovel=43
offset=4822
sample=Tenor_staccatissimo_MF_D3_RR6.opus
</region>

<region>
hivel=84
key=G#2
lovel=43
offset=402
sample=Tenor_staccatissimo_MF_G#2_RR6.opus
</region>

<region>
hivel=42
key=C#5
lovel=0
offset=130
sample=Tenor_staccatissimo_PP_C#5_RR6.opus
</region>

<region>
hivel=42
key=C5
lovel=0
offset=818
sample=Tenor_staccatissimo_PP_C5_RR6.opus
</region>

<region>
hikey=F5
hivel=42
lokey=D#5
lovel=0
offset=7248
pitch_keycenter=D#5
sample=Tenor_staccatissimo_PP_D#5_RR6.opus
</region>

<region>
hivel=42
key=D5
lovel=0
offset=202
sample=Tenor_staccatissimo_PP_D5_RR6.opus
</region>

<region>
hivel=42
key=A#4
lovel=0
offset=768
sample=Tenor_staccatissimo_PP_A#4_RR6.opus
</region>

<region>
hivel=42
key=A4
lovel=0
offset=1268
sample=Tenor_staccatissimo_PP_A4_RR6.opus
</region>

<region>
hivel=42
key=B4
lovel=0
offset=612
sample=Tenor_staccatissimo_PP_B4_RR6.opus
</region>

<region>
hivel=42
key=F#4
lovel=0
offset=4319
sample=Tenor_staccatissimo_PP_F#4_RR6.opus
</region>

<region>
hivel=42
key=G#4
lovel=0
offset=1166
sample=Tenor_staccatissimo_PP_G#4_RR6.opus
</region>

<region>
hivel=42
key=G4
lovel=0
offset=1262
sample=Tenor_staccatissimo_PP_G4_RR6.opus
</region>

<region>
hivel=42
key=C#4
lovel=0
offset=4855
sample=Tenor_staccatissimo_PP_C#4_RR6.opus
</region>

<region>
hivel=42
key=D#4
lovel=0
offset=2310
sample=Tenor_staccatissimo_PP_D#4_RR6.opus
</region>

<region>
hivel=42
key=D4
lovel=0
offset=1181
sample=Tenor_staccatissimo_PP_D4_RR6.opus
</region>

<region>
hivel=42
key=E4
lovel=0
offset=2767
sample=Tenor_staccatissimo_PP_E4_RR6.opus
</region>

<region>
hivel=42
key=F4
lovel=0
offset=2661
sample=Tenor_staccatissimo_PP_F4_RR6.opus
</region>

<region>
hivel=42
key=A#3
lovel=0
offset=2029
sample=Tenor_staccatissimo_PP_A#3_RR6.opus
</region>

<region>
hivel=42
key=A3
lovel=0
offset=2197
sample=Tenor_staccatissimo_PP_A3_RR6.opus
</region>

<region>
hivel=42
key=B2
lovel=0
offset=4454
sample=Tenor_staccatissimo_PP_B2_RR6.opus
</region>

<region>
hivel=42
key=B3
lovel=0
offset=525
sample=Tenor_staccatissimo_PP_B3_RR6.opus
</region>

<region>
hivel=42
key=C#3
lovel=0
offset=3794
sample=Tenor_staccatissimo_PP_C#3_RR6.opus
</region>

<region>
hivel=42
key=C3
lovel=0
offset=5447
sample=Tenor_staccatissimo_PP_C3_RR6.opus
</region>

<region>
hivel=42
key=C4
lovel=0
offset=692
sample=Tenor_staccatissimo_PP_C4_RR6.opus
</region>

<region>
hivel=42
key=D#3
lovel=0
offset=1665
sample=Tenor_staccatissimo_PP_D#3_RR6.opus
</region>

<region>
hivel=42
key=D3
lovel=0
offset=5762
sample=Tenor_staccatissimo_PP_D3_RR6.opus
</region>

<region>
hivel=42
key=E3
lovel=0
offset=2147
sample=Tenor_staccatissimo_PP_E3_RR6.opus
</region>

<region>
hivel=42
key=F#3
lovel=0
offset=2106
sample=Tenor_staccatissimo_PP_F#3_RR6.opus
</region>

<region>
hivel=42
key=F3
lovel=0
offset=5520
sample=Tenor_staccatissimo_PP_F3_RR6.opus
</region>

<region>
hivel=42
key=G#3
lovel=0
offset=468
sample=Tenor_staccatissimo_PP_G#3_RR6.opus
</region>

<region>
hivel=42
key=G3
lovel=0
offset=519
sample=Tenor_staccatissimo_PP_G3_RR6.opus
</region>

<region>
hivel=42
key=A#2
lovel=0
sample=Tenor_staccatissimo_PP_A#2_RR6.opus
</region>

<region>
hivel=42
key=A2
lovel=0
sample=Tenor_staccatissimo_PP_A2_RR6.opus
</region>

<region>
hivel=42
key=G#2
lovel=0
sample=Tenor_staccatissimo_PP_G#2_RR6.opus
</region>
</group>

<group>
group_label=RR7
seq_length=8
seq_position=7

<region>
hivel=127
key=A#4
lovel=85
offset=636
sample=Tenor_staccatissimo_FF_A#4_RR7.opus
</region>

<region>
hivel=127
key=A4
lovel=85
offset=640
sample=Tenor_staccatissimo_FF_A4_RR7.opus
</region>

<region>
hivel=127
key=B4
lovel=85
offset=543
sample=Tenor_staccatissimo_FF_B4_RR7.opus
</region>

<region>
hivel=127
key=C#5
lovel=85
sample=Tenor_staccatissimo_FF_C#5_RR7.opus
</region>

<region>
hivel=127
key=C5
lovel=85
offset=70
sample=Tenor_staccatissimo_FF_C5_RR7.opus
</region>

<region>
hikey=F5
hivel=127
lokey=D#5
lovel=85
offset=7437
pitch_keycenter=D#5
sample=Tenor_staccatissimo_FF_D#5_RR7.opus
</region>

<region>
hivel=127
key=D5
lovel=85
offset=545
sample=Tenor_staccatissimo_FF_D5_RR7.opus
</region>

<region>
hivel=127
key=E4
lovel=85
offset=6211
sample=Tenor_staccatissimo_FF_E4_RR7.opus
</region>

<region>
hivel=127
key=F#4
lovel=85
offset=875
sample=Tenor_staccatissimo_FF_F#4_RR7.opus
</region>

<region>
hivel=127
key=F4
lovel=85
offset=1502
sample=Tenor_staccatissimo_FF_F4_RR7.opus
</region>

<region>
hivel=127
key=G#4
lovel=85
offset=870
sample=Tenor_staccatissimo_FF_G#4_RR7.opus
</region>

<region>
hivel=127
key=G4
lovel=85
offset=472
sample=Tenor_staccatissimo_FF_G4_RR7.opus
</region>

<region>
hivel=127
key=C#4
lovel=85
offset=5564
sample=Tenor_staccatissimo_FF_C#4_RR7.opus
</region>

<region>
hivel=127
key=C4
lovel=85
offset=4024
sample=Tenor_staccatissimo_FF_C4_RR7.opus
</region>

<region>
hivel=127
key=D#4
lovel=85
offset=6578
sample=Tenor_staccatissimo_FF_D#4_RR7.opus
</region>

<region>
hivel=127
key=D4
lovel=85
offset=400
sample=Tenor_staccatissimo_FF_D4_RR7.opus
</region>

<region>
hivel=127
key=A#3
lovel=85
offset=594
sample=Tenor_staccatissimo_FF_A#3_RR7.opus
</region>

<region>
hivel=127
key=A3
lovel=85
offset=465
sample=Tenor_staccatissimo_FF_A3_RR7.opus
</region>

<region>
hivel=127
key=B3
lovel=85
offset=189
sample=Tenor_staccatissimo_FF_B3_RR7.opus
</region>

<region>
hivel=127
key=G#3
lovel=85
offset=852
sample=Tenor_staccatissimo_FF_G#3_RR7.opus
</region>

<region>
hivel=127
key=E3
lovel=85
offset=7009
sample=Tenor_staccatissimo_FF_E3_RR7.opus
</region>

<region>
hivel=127
key=F#3
lovel=85
offset=323
sample=Tenor_staccatissimo_FF_F#3_RR7.opus
</region>

<region>
hivel=127
key=F3
lovel=85
offset=794
sample=Tenor_staccatissimo_FF_F3_RR7.opus
</region>

<region>
hivel=127
key=G3
lovel=85
offset=1232
sample=Tenor_staccatissimo_FF_G3_RR7.opus
</region>

<region>
hivel=127
key=A#2
lovel=85
offset=4778
sample=Tenor_staccatissimo_FF_A#2_RR7.opus
</region>

<region>
hivel=127
key=A2
lovel=85
offset=5887
sample=Tenor_staccatissimo_FF_A2_RR7.opus
</region>

<region>
hivel=127
key=B2
lovel=85
offset=708
sample=Tenor_staccatissimo_FF_B2_RR7.opus
</region>

<region>
hivel=127
key=C#3
lovel=85
offset=5137
sample=Tenor_staccatissimo_FF_C#3_RR7.opus
</region>

<region>
hivel=127
key=C3
lovel=85
offset=7279
sample=Tenor_staccatissimo_FF_C3_RR7.opus
</region>

<region>
hivel=127
key=D#3
lovel=85
offset=5328
sample=Tenor_staccatissimo_FF_D#3_RR7.opus
</region>

<region>
hivel=127
key=D3
lovel=85
offset=6026
sample=Tenor_staccatissimo_FF_D3_RR7.opus
</region>

<region>
hivel=127
key=G#2
lovel=85
sample=Tenor_staccatissimo_FF_G#2_RR7.opus
</region>

<region>
hivel=84
key=A#4
lovel=43
offset=267
sample=Tenor_staccatissimo_MF_A#4_RR7.opus
</region>

<region>
hivel=84
key=A4
lovel=43
offset=998
sample=Tenor_staccatissimo_MF_A4_RR7.opus
</region>

<region>
hivel=84
key=B4
lovel=43
offset=419
sample=Tenor_staccatissimo_MF_B4_RR7.opus
</region>

<region>
hivel=84
key=C#5
lovel=43
offset=400
sample=Tenor_staccatissimo_MF_C#5_RR7.opus
</region>

<region>
hivel=84
key=C5
lovel=43
offset=448
sample=Tenor_staccatissimo_MF_C5_RR7.opus
</region>

<region>
hikey=F5
hivel=84
lokey=D#5
lovel=43
offset=5417
pitch_keycenter=D#5
sample=Tenor_staccatissimo_MF_D#5_RR7.opus
</region>

<region>
hivel=84
key=D5
lovel=43
offset=416
sample=Tenor_staccatissimo_MF_D5_RR7.opus
</region>

<region>
hivel=84
key=G#4
lovel=43
offset=1633
sample=Tenor_staccatissimo_MF_G#4_RR7.opus
</region>

<region>
hivel=84
key=A#3
lovel=43
offset=791
sample=Tenor_staccatissimo_MF_A#3_RR7.opus
</region>

<region>
hivel=84
key=A3
lovel=43
offset=876
sample=Tenor_staccatissimo_MF_A3_RR7.opus
</region>

<region>
hivel=84
key=B3
lovel=43
offset=319
sample=Tenor_staccatissimo_MF_B3_RR7.opus
</region>

<region>
hivel=84
key=C#4
lovel=43
offset=1661
sample=Tenor_staccatissimo_MF_C#4_RR7.opus
</region>

<region>
hivel=84
key=C4
lovel=43
offset=634
sample=Tenor_staccatissimo_MF_C4_RR7.opus
</region>

<region>
hivel=84
key=D#4
lovel=43
offset=1393
sample=Tenor_staccatissimo_MF_D#4_RR7.opus
</region>

<region>
hivel=84
key=D4
lovel=43
offset=4894
sample=Tenor_staccatissimo_MF_D4_RR7.opus
</region>

<region>
hivel=84
key=E3
lovel=43
offset=7929
sample=Tenor_staccatissimo_MF_E3_RR7.opus
</region>

<region>
hivel=84
key=E4
lovel=43
offset=7183
sample=Tenor_staccatissimo_MF_E4_RR7.opus
</region>

<region>
hivel=84
key=F#3
lovel=43
offset=874
sample=Tenor_staccatissimo_MF_F#3_RR7.opus
</region>

<region>
hivel=84
key=F#4
lovel=43
offset=6375
sample=Tenor_staccatissimo_MF_F#4_RR7.opus
</region>

<region>
hivel=84
key=F3
lovel=43
offset=941
sample=Tenor_staccatissimo_MF_F3_RR7.opus
</region>

<region>
hivel=84
key=F4
lovel=43
offset=1588
sample=Tenor_staccatissimo_MF_F4_RR7.opus
</region>

<region>
hivel=84
key=G#3
lovel=43
offset=716
sample=Tenor_staccatissimo_MF_G#3_RR7.opus
</region>

<region>
hivel=84
key=G3
lovel=43
offset=4869
sample=Tenor_staccatissimo_MF_G3_RR7.opus
</region>

<region>
hivel=84
key=G4
lovel=43
offset=996
sample=Tenor_staccatissimo_MF_G4_RR7.opus
</region>

<region>
hivel=84
key=A#2
lovel=43
offset=24
sample=Tenor_staccatissimo_MF_A#2_RR7.opus
</region>

<region>
hivel=84
key=A2
lovel=43
offset=7338
sample=Tenor_staccatissimo_MF_A2_RR7.opus
</region>

<region>
hivel=84
key=B2
lovel=43
offset=4857
sample=Tenor_staccatissimo_MF_B2_RR7.opus
</region>

<region>
hivel=84
key=C#3
lovel=43
offset=5429
sample=Tenor_staccatissimo_MF_C#3_RR7.opus
</region>

<region>
hivel=84
key=C3
lovel=43
offset=5089
sample=Tenor_staccatissimo_MF_C3_RR7.opus
</region>

<region>
hivel=84
key=D#3
lovel=43
offset=2588
sample=Tenor_staccatissimo_MF_D#3_RR7.opus
</region>

<region>
hivel=84
key=D3
lovel=43
offset=5066
sample=Tenor_staccatissimo_MF_D3_RR7.opus
</region>

<region>
hivel=84
key=G#2
lovel=43
offset=367
sample=Tenor_staccatissimo_MF_G#2_RR7.opus
</region>

<region>
hivel=42
key=C#5
lovel=0
offset=150
sample=Tenor_staccatissimo_PP_C#5_RR7.opus
</region>

<region>
hivel=42
key=C5
lovel=0
offset=452
sample=Tenor_staccatissimo_PP_C5_RR7.opus
</region>

<region>
hikey=F5
hivel=42
lokey=D#5
lovel=0
offset=237
pitch_keycenter=D#5
sample=Tenor_staccatissimo_PP_D#5_RR7.opus
</region>

<region>
hivel=42
key=D5
lovel=0
offset=102
sample=Tenor_staccatissimo_PP_D5_RR7.opus
</region>

<region>
hivel=42
key=A#4
lovel=0
offset=476
sample=Tenor_staccatissimo_PP_A#4_RR7.opus
</region>

<region>
hivel=42
key=A4
lovel=0
offset=957
sample=Tenor_staccatissimo_PP_A4_RR7.opus
</region>

<region>
hivel=42
key=B4
lovel=0
offset=410
sample=Tenor_staccatissimo_PP_B4_RR7.opus
</region>

<region>
hivel=42
key=F#4
lovel=0
offset=5112
sample=Tenor_staccatissimo_PP_F#4_RR7.opus
</region>

<region>
hivel=42
key=G#4
lovel=0
offset=1053
sample=Tenor_staccatissimo_PP_G#4_RR7.opus
</region>

<region>
hivel=42
key=G4
lovel=0
offset=380
sample=Tenor_staccatissimo_PP_G4_RR7.opus
</region>

<region>
hivel=42
key=C#4
lovel=0
offset=2498
sample=Tenor_staccatissimo_PP_C#4_RR7.opus
</region>

<region>
hivel=42
key=D#4
lovel=0
offset=1118
sample=Tenor_staccatissimo_PP_D#4_RR7.opus
</region>

<region>
hivel=42
key=D4
lovel=0
offset=1023
sample=Tenor_staccatissimo_PP_D4_RR7.opus
</region>

<region>
hivel=42
key=E4
lovel=0
offset=1783
sample=Tenor_staccatissimo_PP_E4_RR7.opus
</region>

<region>
hivel=42
key=F4
lovel=0
offset=2915
sample=Tenor_staccatissimo_PP_F4_RR7.opus
</region>

<region>
hivel=42
key=A#3
lovel=0
offset=3529
sample=Tenor_staccatissimo_PP_A#3_RR7.opus
</region>

<region>
hivel=42
key=A3
lovel=0
offset=1072
sample=Tenor_staccatissimo_PP_A3_RR7.opus
</region>

<region>
hivel=42
key=B2
lovel=0
offset=3685
sample=Tenor_staccatissimo_PP_B2_RR7.opus
</region>

<region>
hivel=42
key=B3
lovel=0
offset=521
sample=Tenor_staccatissimo_PP_B3_RR7.opus
</region>

<region>
hivel=42
key=C#3
lovel=0
offset=4822
sample=Tenor_staccatissimo_PP_C#3_RR7.opus
</region>

<region>
hivel=42
key=C3
lovel=0
offset=7631
sample=Tenor_staccatissimo_PP_C3_RR7.opus
</region>

<region>
hivel=42
key=C4
lovel=0
offset=3080
sample=Tenor_staccatissimo_PP_C4_RR7.opus
</region>

<region>
hivel=42
key=D#3
lovel=0
offset=2287
sample=Tenor_staccatissimo_PP_D#3_RR7.opus
</region>

<region>
hivel=42
key=D3
lovel=0
offset=4728
sample=Tenor_staccatissimo_PP_D3_RR7.opus
</region>

<region>
hivel=42
key=E3
lovel=0
offset=2150
sample=Tenor_staccatissimo_PP_E3_RR7.opus
</region>

<region>
hivel=42
key=F#3
lovel=0
offset=4101
sample=Tenor_staccatissimo_PP_F#3_RR7.opus
</region>

<region>
hivel=42
key=F3
lovel=0
offset=5895
sample=Tenor_staccatissimo_PP_F3_RR7.opus
</region>

<region>
hivel=42
key=G#3
lovel=0
offset=720
sample=Tenor_staccatissimo_PP_G#3_RR7.opus
</region>

<region>
hivel=42
key=G3
lovel=0
offset=1249
sample=Tenor_staccatissimo_PP_G3_RR7.opus
</region>

<region>
hivel=42
key=A#2
lovel=0
sample=Tenor_staccatissimo_PP_A#2_RR7.opus
</region>

<region>
hivel=42
key=A2
lovel=0
offset=5020
sample=Tenor_staccatissimo_PP_A2_RR7.opus
</region>

<region>
hivel=42
key=G#2
lovel=0
offset=5111
sample=Tenor_staccatissimo_PP_G#2_RR7.opus
</region>
</group>

<group>
group_label=RR8
seq_length=8
seq_position=8

<region>
hivel=127
key=A#4
lovel=85
offset=397
sample=Tenor_staccatissimo_FF_A#4_RR8.opus
</region>

<region>
hivel=127
key=A4
lovel=85
offset=389
sample=Tenor_staccatissimo_FF_A4_RR8.opus
</region>

<region>
hivel=127
key=B4
lovel=85
offset=332
sample=Tenor_staccatissimo_FF_B4_RR8.opus
</region>

<region>
hivel=127
key=C#5
lovel=85
offset=539
sample=Tenor_staccatissimo_FF_C#5_RR8.opus
</region>

<region>
hivel=127
key=C5
lovel=85
offset=82
sample=Tenor_staccatissimo_FF_C5_RR8.opus
</region>

<region>
hikey=F5
hivel=127
lokey=D#5
lovel=85
offset=10021
pitch_keycenter=D#5
sample=Tenor_staccatissimo_FF_D#5_RR8.opus
</region>

<region>
hivel=127
key=D5
lovel=85
sample=Tenor_staccatissimo_FF_D5_RR8.opus
</region>

<region>
hivel=127
key=E4
lovel=85
offset=586
sample=Tenor_staccatissimo_FF_E4_RR8.opus
</region>

<region>
hivel=127
key=F#4
lovel=85
offset=610
sample=Tenor_staccatissimo_FF_F#4_RR8.opus
</region>

<region>
hivel=127
key=F4
lovel=85
offset=1555
sample=Tenor_staccatissimo_FF_F4_RR8.opus
</region>

<region>
hivel=127
key=G#4
lovel=85
offset=364
sample=Tenor_staccatissimo_FF_G#4_RR8.opus
</region>

<region>
hivel=127
key=G4
lovel=85
offset=1402
sample=Tenor_staccatissimo_FF_G4_RR8.opus
</region>

<region>
hivel=127
key=C#4
lovel=85
offset=477
sample=Tenor_staccatissimo_FF_C#4_RR8.opus
</region>

<region>
hivel=127
key=C4
lovel=85
offset=4991
sample=Tenor_staccatissimo_FF_C4_RR8.opus
</region>

<region>
hivel=127
key=D#4
lovel=85
offset=6576
sample=Tenor_staccatissimo_FF_D#4_RR8.opus
</region>

<region>
hivel=127
key=D4
lovel=85
offset=6950
sample=Tenor_staccatissimo_FF_D4_RR8.opus
</region>

<region>
hivel=127
key=A#3
lovel=85
offset=253
sample=Tenor_staccatissimo_FF_A#3_RR8.opus
</region>

<region>
hivel=127
key=A3
lovel=85
offset=461
sample=Tenor_staccatissimo_FF_A3_RR8.opus
</region>

<region>
hivel=127
key=B3
lovel=85
sample=Tenor_staccatissimo_FF_B3_RR8.opus
</region>

<region>
hivel=127
key=G#3
lovel=85
offset=273
sample=Tenor_staccatissimo_FF_G#3_RR8.opus
</region>

<region>
hivel=127
key=E3
lovel=85
offset=1048
sample=Tenor_staccatissimo_FF_E3_RR8.opus
</region>

<region>
hivel=127
key=F#3
lovel=85
offset=6255
sample=Tenor_staccatissimo_FF_F#3_RR8.opus
</region>

<region>
hivel=127
key=F3
lovel=85
offset=382
sample=Tenor_staccatissimo_FF_F3_RR8.opus
</region>

<region>
hivel=127
key=G3
lovel=85
offset=528
sample=Tenor_staccatissimo_FF_G3_RR8.opus
</region>

<region>
hivel=127
key=A#2
lovel=85
offset=6018
sample=Tenor_staccatissimo_FF_A#2_RR8.opus
</region>

<region>
hivel=127
key=A2
lovel=85
offset=5258
sample=Tenor_staccatissimo_FF_A2_RR8.opus
</region>

<region>
hivel=127
key=B2
lovel=85
offset=6447
sample=Tenor_staccatissimo_FF_B2_RR8.opus
</region>

<region>
hivel=127
key=C#3
lovel=85
offset=4910
sample=Tenor_staccatissimo_FF_C#3_RR8.opus
</region>

<region>
hivel=127
key=C3
lovel=85
offset=7012
sample=Tenor_staccatissimo_FF_C3_RR8.opus
</region>

<region>
hivel=127
key=D#3
lovel=85
offset=5222
sample=Tenor_staccatissimo_FF_D#3_RR8.opus
</region>

<region>
hivel=127
key=D3
lovel=85
offset=5898
sample=Tenor_staccatissimo_FF_D3_RR8.opus
</region>

<region>
hivel=127
key=G#2
lovel=85
sample=Tenor_staccatissimo_FF_G#2_RR8.opus
</region>

<region>
hivel=84
key=A#4
lovel=43
offset=658
sample=Tenor_staccatissimo_MF_A#4_RR8.opus
</region>

<region>
hivel=84
key=A4
lovel=43
offset=986
sample=Tenor_staccatissimo_MF_A4_RR8.opus
</region>

<region>
hivel=84
key=B4
lovel=43
offset=290
sample=Tenor_staccatissimo_MF_B4_RR8.opus
</region>

<region>
hivel=84
key=C#5
lovel=43
offset=474
sample=Tenor_staccatissimo_MF_C#5_RR8.opus
</region>

<region>
hivel=84
key=C5
lovel=43
offset=748
sample=Tenor_staccatissimo_MF_C5_RR8.opus
</region>

<region>
hikey=F5
hivel=84
lokey=D#5
lovel=43
offset=7366
pitch_keycenter=D#5
sample=Tenor_staccatissimo_MF_D#5_RR8.opus
</region>

<region>
hivel=84
key=D5
lovel=43
offset=187
sample=Tenor_staccatissimo_MF_D5_RR8.opus
</region>

<region>
hivel=84
key=G#4
lovel=43
offset=1073
sample=Tenor_staccatissimo_MF_G#4_RR8.opus
</region>

<region>
hivel=84
key=A#3
lovel=43
offset=576
sample=Tenor_staccatissimo_MF_A#3_RR8.opus
</region>

<region>
hivel=84
key=A3
lovel=43
offset=1110
sample=Tenor_staccatissimo_MF_A3_RR8.opus
</region>

<region>
hivel=84
key=B3
lovel=43
offset=306
sample=Tenor_staccatissimo_MF_B3_RR8.opus
</region>

<region>
hivel=84
key=C#4
lovel=43
offset=5273
sample=Tenor_staccatissimo_MF_C#4_RR8.opus
</region>

<region>
hivel=84
key=C4
lovel=43
offset=4163
sample=Tenor_staccatissimo_MF_C4_RR8.opus
</region>

<region>
hivel=84
key=D#4
lovel=43
offset=1297
sample=Tenor_staccatissimo_MF_D#4_RR8.opus
</region>

<region>
hivel=84
key=D4
lovel=43
offset=2391
sample=Tenor_staccatissimo_MF_D4_RR8.opus
</region>

<region>
hivel=84
key=E3
lovel=43
offset=7620
sample=Tenor_staccatissimo_MF_E3_RR8.opus
</region>

<region>
hivel=84
key=E4
lovel=43
offset=5433
sample=Tenor_staccatissimo_MF_E4_RR8.opus
</region>

<region>
hivel=84
key=F#3
lovel=43
offset=5184
sample=Tenor_staccatissimo_MF_F#3_RR8.opus
</region>

<region>
hivel=84
key=F#4
lovel=43
offset=4634
sample=Tenor_staccatissimo_MF_F#4_RR8.opus
</region>

<region>
hivel=84
key=F3
lovel=43
offset=685
sample=Tenor_staccatissimo_MF_F3_RR8.opus
</region>

<region>
hivel=84
key=F4
lovel=43
offset=2164
sample=Tenor_staccatissimo_MF_F4_RR8.opus
</region>

<region>
hivel=84
key=G#3
lovel=43
offset=739
sample=Tenor_staccatissimo_MF_G#3_RR8.opus
</region>

<region>
hivel=84
key=G3
lovel=43
offset=5402
sample=Tenor_staccatissimo_MF_G3_RR8.opus
</region>

<region>
hivel=84
key=G4
lovel=43
offset=4961
sample=Tenor_staccatissimo_MF_G4_RR8.opus
</region>

<region>
hivel=84
key=A#2
lovel=43
offset=7874
sample=Tenor_staccatissimo_MF_A#2_RR8.opus
</region>

<region>
hivel=84
key=A2
lovel=43
offset=7167
sample=Tenor_staccatissimo_MF_A2_RR8.opus
</region>

<region>
hivel=84
key=B2
lovel=43
offset=5410
sample=Tenor_staccatissimo_MF_B2_RR8.opus
</region>

<region>
hivel=84
key=C#3
lovel=43
offset=5814
sample=Tenor_staccatissimo_MF_C#3_RR8.opus
</region>

<region>
hivel=84
key=C3
lovel=43
offset=6554
sample=Tenor_staccatissimo_MF_C3_RR8.opus
</region>

<region>
hivel=84
key=D#3
lovel=43
offset=1647
sample=Tenor_staccatissimo_MF_D#3_RR8.opus
</region>

<region>
hivel=84
key=D3
lovel=43
offset=5704
sample=Tenor_staccatissimo_MF_D3_RR8.opus
</region>

<region>
hivel=84
key=G#2
lovel=43
offset=257
sample=Tenor_staccatissimo_MF_G#2_RR8.opus
</region>

<region>
hivel=42
key=C#5
lovel=0
sample=Tenor_staccatissimo_PP_C#5_RR8.opus
</region>

<region>
hivel=42
key=C5
lovel=0
offset=540
sample=Tenor_staccatissimo_PP_C5_RR8.opus
</region>

<region>
hikey=F5
hivel=42
lokey=D#5
lovel=0
offset=6636
pitch_keycenter=D#5
sample=Tenor_staccatissimo_PP_D#5_RR8.opus
</region>

<region>
hivel=42
key=D5
lovel=0
offset=292
sample=Tenor_staccatissimo_PP_D5_RR8.opus
</region>

<region>
hivel=42
key=A#4
lovel=0
offset=685
sample=Tenor_staccatissimo_PP_A#4_RR8.opus
</region>

<region>
hivel=42
key=A4
lovel=0
offset=752
sample=Tenor_staccatissimo_PP_A4_RR8.opus
</region>

<region>
hivel=42
key=B4
lovel=0
sample=Tenor_staccatissimo_PP_B4_RR8.opus
</region>

<region>
hivel=42
key=F#4
lovel=0
offset=1491
sample=Tenor_staccatissimo_PP_F#4_RR8.opus
</region>

<region>
hivel=42
key=G#4
lovel=0
offset=689
sample=Tenor_staccatissimo_PP_G#4_RR8.opus
</region>

<region>
hivel=42
key=G4
lovel=0
offset=626
sample=Tenor_staccatissimo_PP_G4_RR8.opus
</region>

<region>
hivel=42
key=C#4
lovel=0
offset=791
sample=Tenor_staccatissimo_PP_C#4_RR8.opus
</region>

<region>
hivel=42
key=D#4
lovel=0
offset=2224
sample=Tenor_staccatissimo_PP_D#4_RR8.opus
</region>

<region>
hivel=42
key=D4
lovel=0
offset=4155
sample=Tenor_staccatissimo_PP_D4_RR8.opus
</region>

<region>
hivel=42
key=E4
lovel=0
offset=5756
sample=Tenor_staccatissimo_PP_E4_RR8.opus
</region>

<region>
hivel=42
key=F4
lovel=0
offset=3584
sample=Tenor_staccatissimo_PP_F4_RR8.opus
</region>

<region>
hivel=42
key=A#3
lovel=0
offset=762
sample=Tenor_staccatissimo_PP_A#3_RR8.opus
</region>

<region>
hivel=42
key=A3
lovel=0
offset=856
sample=Tenor_staccatissimo_PP_A3_RR8.opus
</region>

<region>
hivel=42
key=B2
lovel=0
offset=4388
sample=Tenor_staccatissimo_PP_B2_RR8.opus
</region>

<region>
hivel=42
key=B3
lovel=0
offset=335
sample=Tenor_staccatissimo_PP_B3_RR8.opus
</region>

<region>
hivel=42
key=C#3
lovel=0
offset=3411
sample=Tenor_staccatissimo_PP_C#3_RR8.opus
</region>

<region>
hivel=42
key=C3
lovel=0
offset=6521
sample=Tenor_staccatissimo_PP_C3_RR8.opus
</region>

<region>
hivel=42
key=C4
lovel=0
offset=1003
sample=Tenor_staccatissimo_PP_C4_RR8.opus
</region>

<region>
hivel=42
key=D#3
lovel=0
offset=1722
sample=Tenor_staccatissimo_PP_D#3_RR8.opus
</region>

<region>
hivel=42
key=D3
lovel=0
offset=5415
sample=Tenor_staccatissimo_PP_D3_RR8.opus
</region>

<region>
hivel=42
key=E3
lovel=0
offset=3020
sample=Tenor_staccatissimo_PP_E3_RR8.opus
</region>

<region>
hivel=42
key=F#3
lovel=0
offset=4101
sample=Tenor_staccatissimo_PP_F#3_RR8.opus
</region>

<region>
hivel=42
key=F3
lovel=0
offset=4806
sample=Tenor_staccatissimo_PP_F3_RR8.opus
</region>

<region>
hivel=42
key=G#3
lovel=0
offset=681
sample=Tenor_staccatissimo_PP_G#3_RR8.opus
</region>

<region>
hivel=42
key=G3
lovel=0
offset=1003
sample=Tenor_staccatissimo_PP_G3_RR8.opus
</region>

<region>
hivel=42
key=A#2
lovel=0
offset=6549
sample=Tenor_staccatissimo_PP_A#2_RR8.opus
</region>

<region>
hivel=42
key=A2
lovel=0
offset=4742
sample=Tenor_staccatissimo_PP_A2_RR8.opus
</region>

<region>
hivel=42
key=G#2
lovel=0
sample=Tenor_staccatissimo_PP_G#2_RR8.opus
</region>
</group>